<?xml version="1.0" encoding="UTF-8"?>
<!DOCTYPE svg PUBLIC "-//W3C//DTD SVG 1.1//EN" "http://www.w3.org/Graphics/SVG/1.1/DTD/svg11.dtd">
<!-- Creator: CorelDRAW 2021 (64-Bit) -->
<svg xmlns="http://www.w3.org/2000/svg" xml:space="preserve" width="17.0667in" height="17.0667in" version="1.1" style="shape-rendering:geometricPrecision; text-rendering:geometricPrecision; image-rendering:optimizeQuality; fill-rule:evenodd; clip-rule:evenodd"
viewBox="0 0 17066.66 17066.66"
 xmlns:xlink="http://www.w3.org/1999/xlink"
 xmlns:xodm="http://www.corel.com/coreldraw/odm/2003">
 <defs>
  <style type="text/css">
   <![CDATA[
    .fil5 {fill:#FCB62E;fill-rule:nonzero}
    .fil6 {fill:#F89833;fill-rule:nonzero}
    .fil1 {fill:#BD5230;fill-rule:nonzero}
    .fil2 {fill:#AC3C33;fill-rule:nonzero}
    .fil0 {fill:#4D290A;fill-rule:nonzero}
    .fil4 {fill:#9F4F08;fill-rule:nonzero}
    .fil3 {fill:#B5700E;fill-rule:nonzero}
    .fil7 {fill:white;fill-rule:nonzero}
   ]]>
  </style>
 </defs>
 <g id="Layer_x0020_1">
  <metadata id="CorelCorpID_0Corel-Layer"/>
  <g id="_1879926900512">
   <g id="logo">
    <path id="Black" class="fil0" d="M6199.09 5448.26c3.32,0 6.61,0.13 9.87,0.4 601.82,-1676.41 1892.21,-1704.09 3275.44,-1733.46 1101.54,-23.4 2262.74,-48.07 3169.55,-924.33 -12.74,-4.67 -25.63,-9.09 -38.64,-13.25l-0.36 -0.11 -9.04 -2.83c-33.06,-10.16 -51.61,-45.2 -41.46,-78.26 10.16,-33.05 45.2,-51.61 78.26,-41.45 226.54,69.84 417.3,203.53 557.74,387.75 130.95,171.76 217.83,387.13 248.72,635.09 21.46,141.91 26.07,294.58 11.77,455.98 -39.14,441.72 -219.93,950.24 -585,1482.6 -187.16,272.92 -423.07,552.44 -713.43,832.7 194.47,89.43 384.54,185.52 569.86,287.94 213.7,118.09 422.5,245.35 625.85,381.26 28.72,19.24 36.41,58.12 17.17,86.84l-2018.58 3026.39c-6.49,159.1 -36.49,326.48 -114.89,459.42 -92.57,156.97 -99.65,260.94 -107.21,372.14 -8.65,127.22 -17.88,262.87 -131.17,481.27 -114.15,220.05 -270.56,353.27 -490.59,438.33 -112.44,43.47 -240.89,73.85 -388.64,96.7l-1538.31 2306.34c-2.17,3.37 -4.67,6.56 -7.51,9.51l-1.83 1.83c-4.61,4.43 -9.79,8.06 -15.35,10.82l-0.83 0.4c-8.13,3.93 -16.81,5.95 -25.46,6.18l-3.39 0c-8.66,-0.23 -17.33,-2.25 -25.47,-6.18l-0.83 -0.4c-5.56,-2.77 -10.74,-6.39 -15.35,-10.82l-1.83 -1.83c-2.84,-2.95 -5.35,-6.14 -7.51,-9.51l-3363.02 -5042.07c-168.78,-18.28 -332.06,-56.99 -481.34,-114.78 -116.66,124.37 -207.82,221.13 -330.69,132.79 -98.65,-70.92 -79.07,-151.4 -46.68,-284.59 4.48,-18.45 9.29,-38.21 14.03,-59.43 -102.44,-88.51 -184.44,-193.33 -245.98,-308.72 -114.29,-214.3 -157.52,-464.42 -129.8,-713.3 13.18,-118.31 42.38,-236.46 87.58,-350.45l-293.48 -440.01c-19.24,-28.71 -11.55,-67.6 17.17,-86.83 574.53,-383.97 1197.11,-701.26 1856.65,-940.85 11.4,-4.57 23,-8.97 34.8,-13.2 -8.63,-49.58 -5.73,-102.4 7.4,-152.52 20.95,-79.96 68.25,-154.64 136.65,-200.44 28.72,-19.24 67.6,-11.55 86.84,17.17 19.23,28.72 11.54,67.6 -17.17,86.84 -41.99,28.11 -71.53,75.85 -85.15,127.83 -6.92,26.44 -9.67,53.58 -7.79,79.46 95.94,-32.79 192.63,-63.94 290.02,-93.43 13.15,-3.98 26.32,-7.93 39.5,-11.85 -1.34,-31.81 -4.21,-63.32 -6.84,-92.15 -3.01,-33.19 1.19,17.3 -2.48,-25.26 -9.52,-110.27 26.45,-205.93 57.52,-265.78 -12.34,-18.87 -19.52,-41.44 -19.52,-65.67 0,-33.19 13.47,-63.24 35.22,-84.99 21.75,-21.75 51.81,-35.22 84.99,-35.22zm6521.43 8.41l-113.67 -61.34 -972.26 831.79c86.33,32.96 171.88,67.22 256.6,102.71 342.09,-294.26 615.92,-587.7 829.33,-873.16zm412.78 -1988.87l127.06 -34.16c-42.69,-120.87 -100.86,-228.85 -172.35,-321.76 -100.13,-130.12 -226.57,-230.91 -373.19,-296.32l418.48 652.24zm-459.26 1821.37l120.69 65.13c328.1,-467.26 493.63,-909.06 532.62,-1293.06 12.88,-126.85 11.93,-247.28 -1.52,-360.11 -7.48,-50.7 -17.28,-99.85 -29.26,-147.35l-143.29 38.52 -0.78 0.2 -478.45 1696.66zm-6406.09 180.77c5.77,4.04 11.17,8.57 16.13,13.54 21.75,21.75 35.22,51.8 35.22,84.99 0,33.19 -13.47,63.24 -35.22,84.99 -19.15,19.15 -44.75,31.88 -73.25,34.65 -23.3,43.41 -52.19,116.17 -44.86,201.02 5.07,58.72 0.54,8.72 2,24.77 1.95,21.46 4.02,44.22 5.6,67.74 750.42,-211.14 1541.93,-324.11 2359.76,-324.11 28.63,0 68.79,0.36 120.74,1.07l26.73 0.4c4.52,-37.44 16.2,-87.16 26.44,-124.67 2.28,-8.36 5.59,-16.6 9.8,-24.62 23.42,-44.69 84.54,-93.33 147.97,-126.91l2.33 -1.22c-9.66,-13.96 -12.87,-30.48 -10.27,-46.02 4.41,-36.12 43.12,-283.78 283.93,-382.54 40.67,-16.68 89.79,-27.75 144.92,-33.6 226.24,-403.64 639.42,-353.15 987.61,-310.53 133.99,16.4 257.44,31.51 346.74,15.67 6,-1.06 15,-2.37 26.78,-3.89 179.63,-23.28 393.23,33.05 566.03,122.44 179.16,92.69 318.53,224.71 340.22,347.08l1.32 9.95c24.31,187.61 -117.99,247.27 -238.09,297.62 -42.09,17.65 -80.3,33.67 -91.29,48.09 -1.05,1.37 -1.6,6.7 -1.79,15.21 0.28,11.27 0.54,21.85 0.74,31.45 0.04,2.35 -0.04,4.67 -0.24,6.95 0.59,19.3 1.57,42.72 2.65,68.5 5.87,139.96 14,333.79 -68.04,493.2 117.7,37.21 233.69,76.64 347.92,118.2 20.45,7.44 40.86,14.96 61.22,22.54l999.04 -854.69c-2.54,-13.57 -0.64,-28.07 6.41,-41.17 8.65,-16.09 23.34,-26.87 39.76,-31.05l479.26 -1699.48c-7.28,-7.45 -12.8,-16.82 -15.69,-27.6 -4.2,-15.7 -2.04,-31.61 4.88,-45l-411.29 -641.04c-920.04,867.63 -2081.8,892.46 -3184.46,915.88 -1360.13,28.88 -2628.99,56.12 -3217.68,1692.19z"/>
    <g id="light_x0020_red">
     <path class="fil1" d="M9461.89 11053.76c-24.24,-8.13 -55.33,-8.43 -87.5,1.02l-0.02 -0.06 -3.24 1.11c-30.65,9.61 -54.93,25.98 -69.51,44.85 -9.72,12.58 -14.35,25.34 -11.79,35.55l0.44 1.35c3.48,11.11 15.75,20.2 32.74,25.9 24.24,8.13 55.33,8.43 87.5,-1.02l0.02 0.06 3.24 -1.11c30.65,-9.61 54.94,-25.98 69.51,-44.85 9.72,-12.59 14.35,-25.34 11.79,-35.55l-0.44 -1.35c-3.48,-11.11 -15.75,-20.2 -32.74,-25.91z"/>
     <path class="fil1" d="M9911.15 10387.56c-12.07,21.94 -17.92,51.63 -14.84,84.07l0.73 5.61c3.98,31.77 15.8,58.56 31.8,76.31 10.43,11.56 21.89,18.35 32.21,17.94l2.04 -0.28c11.45,-1.44 22.53,-11.88 31.16,-27.57 12.06,-21.94 17.92,-51.64 14.84,-84.07l-0.73 -5.61c-3.99,-31.77 -15.8,-58.56 -31.81,-76.31 -10.43,-11.56 -21.89,-18.34 -32.22,-17.93l-2.03 0.28c-11.45,1.43 -22.53,11.87 -31.15,27.57z"/>
     <path class="fil1" d="M5860.28 6734.2c-5.83,-1.05 -12.86,-1.61 -21.1,-1.61 -38.81,0 -77.61,17.13 -108.92,44.79 -32.43,28.67 -56.4,67.88 -64.18,110.83 -1.59,8.79 -2.36,18.19 -2.36,28.03 0,28.14 8.1,52.5 22.26,70.43 13.58,17.17 33.21,29.19 56.94,33.48 5.83,1.05 12.86,1.61 21.1,1.61 38.82,0 77.6,-17.13 108.91,-44.79 32.44,-28.67 56.4,-67.88 64.18,-110.83 1.59,-8.79 2.36,-18.2 2.36,-28.04 0,-28.13 -8.1,-52.5 -22.26,-70.42 -13.58,-17.18 -33.21,-29.19 -56.94,-33.48z"/>
     <path class="fil1" d="M6493.35 7317.01c-28.53,-26.92 -66.91,-43.57 -108.33,-43.57l-7.56 0.01c-36.96,1.8 -69.48,17.3 -92.67,41.42 -22.91,23.83 -36.77,56.48 -36.77,92.96l0 7.25c1.97,40.37 20.56,77.15 48.98,103.95 28.53,26.92 66.91,43.57 108.33,43.57l7.56 -0.01c36.96,-1.8 69.48,-17.3 92.67,-41.42 22.91,-23.83 36.77,-56.48 36.77,-92.96l0 -7.25c-1.97,-40.37 -20.55,-77.15 -48.98,-103.95z"/>
     <path class="fil1" d="M6532.51 8021.76c-25.49,-24.13 -61.11,-39.41 -101.2,-40.48l-4.64 0.17c-42.5,0 -81.04,15.71 -108.99,41.09 -26.88,24.42 -43.89,57.61 -44.63,93.73l-0.04 2.89c0.09,34.46 15.15,65.93 39.7,89.17 25.49,24.13 61.13,39.41 101.21,40.48l4.64 -0.17c42.5,0 81.04,-15.71 108.98,-41.09 26.43,-24 43.31,-56.49 44.58,-91.91l-0.16 -4.43c0,-34.74 -15,-66.3 -39.45,-89.45z"/>
     <path class="fil1" d="M5676.29 8323.06l-5.24 1.33 -0.02 -0.1c-45.57,12.22 -82.78,38.46 -106.12,71.04 -20.39,28.46 -29.61,61.46 -23.23,92.72l1.61 6 -0.1 0.03c8.25,30.4 30.93,54.54 61.22,69.16 32.97,15.91 74.47,20.73 117.47,11.12l8.65 -2.31 0.02 0.11c45.57,-12.23 82.78,-38.46 106.11,-71.05 20.39,-28.46 29.62,-61.46 23.23,-92.72l-1.61 -6.01 0.11 -0.02c-8.25,-30.39 -30.92,-54.54 -61.22,-69.15 -32.97,-15.9 -74.46,-20.73 -117.46,-11.12l-3.41 0.97z"/>
     <path class="fil1" d="M5670.45 7622.21c-24.47,-28.94 -60.77,-49.38 -103.08,-54.44l-1.28 -0.18c-41.84,-4.68 -81.12,6.56 -110.86,28.57 -28.62,21.2 -48.48,52.57 -52.85,89.14l-0.15 1.25c-4.08,37.03 8.38,72.69 31.82,100.41 24.47,28.94 60.77,49.38 103.08,54.44l1.28 0.18c41.85,4.69 81.12,-6.55 110.86,-28.57 28.62,-21.2 48.48,-52.57 52.85,-89.14l0.15 -1.02c4.15,-37.11 -8.32,-72.87 -31.82,-100.66z"/>
     <path class="fil1" d="M5251.42 6902.07c-20.99,-24.81 -52.15,-42.35 -88.51,-46.69l-1.13 -0.16c-35.94,-4.02 -69.62,5.6 -95.09,24.45 -24.35,18.03 -41.24,44.68 -44.95,75.72l-0.13 0.89c-3.51,31.53 7.11,61.95 27.12,85.6 20.98,24.81 52.15,42.35 88.5,46.69l1.13 0.16c35.95,4.02 69.63,-5.6 95.09,-24.45 24.35,-18.03 41.24,-44.69 44.94,-75.72l0.13 -0.88c3.52,-31.54 -7.11,-61.94 -27.11,-85.6z"/>
     <path class="fil1" d="M4712.54 7693.42c-20.99,-24.81 -52.15,-42.35 -88.5,-46.69l-1.13 -0.16c-35.94,-4.02 -69.62,5.6 -95.09,24.45 -24.35,18.03 -41.24,44.68 -44.94,75.72l-0.13 0.89c-3.51,31.53 7.11,61.95 27.11,85.6 20.98,24.82 52.15,42.35 88.5,46.7l1.13 0.16c35.94,4.02 69.62,-5.6 95.09,-24.45 24.35,-18.04 41.24,-44.69 44.94,-75.72l0.13 -0.88c3.52,-31.54 -7.11,-61.94 -27.11,-85.6z"/>
     <path class="fil1" d="M4716.5 8425.97c-1.54,0.57 -0.16,0.14 -5.81,2.43l-0.04 -0.09 -0.21 0.09c-43.71,17.67 -77.59,47.55 -97.02,81.56 -17.16,30.04 -22.47,62.9 -11.89,91.41l-0.08 0.03 0.88 2.21 -0.09 0.04 0.09 0.21c10.53,26.06 33.88,44.92 63.46,54.46 34.22,11.04 75.95,10.02 117.59,-5.43 1.54,-0.57 0.16,-0.14 5.8,-2.43l0.04 0.09 0.21 -0.09c43.71,-17.67 77.59,-47.55 97.01,-81.56 16.65,-29.13 22.27,-60.76 13.19,-88.41l-2.1 -5.25 0.09 -0.04 -0.09 -0.21c-10.53,-26.06 -33.87,-44.92 -63.46,-54.46 -34.22,-11.04 -75.94,-10.03 -117.58,5.43z"/>
     <path class="fil1" d="M9285.63 5190.14c6.18,-29.91 18.69,-62.61 37.79,-94.19 11.58,-19.14 25.66,-38.36 42.28,-56.77 -10.06,0.19 -19.92,0.54 -29.57,1.07 -4.56,0.81 -9.22,1.11 -13.9,0.88 -52.21,3.83 -97.69,12.91 -133.64,27.65 -90.73,37.21 -142.11,103.64 -171.02,162.8 66.49,-22.04 156.6,-41.39 268.06,-41.44z"/>
     <path class="fil1" d="M9683.06 5264.96c7.02,-22.62 17.41,-46.15 31.28,-69.09 19.31,-31.94 45.63,-64.13 79.04,-92.32 -42.83,-12.41 -85.85,-23.15 -128.4,-32.1 -33.79,-7.11 -67.17,-13.1 -99.81,-17.92 -7.48,2.48 -14.85,5.33 -22.11,8.5 -52.12,22.8 -89.4,60.96 -112.21,98.69 -8.26,13.67 -14.57,26.37 -18.86,37.38 81.91,10.19 172.47,30.95 271.06,66.87z"/>
     <path class="fil1" d="M10064.96 5466.6c13.94,-27.47 32.04,-55.34 53.4,-81.91 26.18,-32.58 57.69,-63.96 92.65,-90.85l-7.63 -5.24c-75.15,-51.21 -162.74,-95.68 -255.35,-132.31 -4.72,1.74 -9.4,3.64 -14.03,5.66 -52.12,22.8 -89.4,60.96 -112.21,98.69 -12.17,20.11 -20.06,38.16 -23.59,51.76l3.02 1.38c101.61,46.89 188.89,98.94 263.75,152.83z"/>
     <path class="fil1" d="M10773.37 7281.05c-2.34,1.63 -4.76,3.08 -7.24,4.36 -386.02,231.89 -819.87,459.67 -1305.55,679.69 15.48,29.48 29.53,60.98 41.63,94.2 32.81,-15.51 65.41,-31.06 97.73,-46.65 2.22,-1.26 4.52,-2.37 6.87,-3.34 626.51,-302.76 1160.93,-620.36 1612.91,-943.39 1.28,-1.03 2.6,-2 3.98,-2.94l1.59 -1.05c469.76,-336.28 850.22,-678.4 1152.17,-1015.74 -219.01,223.79 -475.16,449.61 -771.74,674.35 -1.87,1.61 -3.85,3.12 -5.92,4.5 -135.63,102.59 -279.75,204.94 -432.59,306.77 -2.83,2.26 -5.82,4.24 -8.92,5.93 -122.62,81.5 -250.89,162.66 -384.92,243.32z"/>
     <path class="fil1" d="M11089.91 5230.47c-1.9,-34.54 24.57,-64.09 59.11,-65.98 34.54,-1.9 64.09,24.57 65.98,59.11 0.97,16.94 2.2,45.97 3.48,80.07 15.91,-7.39 32.71,-14.44 49.99,-21.68 79.69,-33.41 174.11,-73 162.04,-166.15 -0.2,-1.55 -0.08,0.19 -0.83,-4.07 -14.65,-82.65 -127.17,-181.35 -273.98,-257.3 -153.19,-79.25 -339.73,-129.54 -492.94,-109.69 -4.27,0.55 -11.18,1.68 -20.9,3.4 -107.63,19.08 -239.93,2.89 -383.53,-14.69 -287.19,-35.15 -624.15,-76.37 -820.47,182.15 79.6,3.52 165.41,14.8 252.64,33.15 90.85,19.12 183.89,45.91 273.6,79.54 6.48,1.36 12.67,3.74 18.35,7 105.43,40.85 205.67,91.21 291.57,149.74 182.76,124.52 337.81,292.59 446.98,485.4 85.16,150.39 142.48,316.06 163.41,488.15 236.61,-119.52 224.66,-405.51 217.1,-585.77 -1.15,-27.3 -2.21,-52.69 -2.33,-75.96l-0.07 -1.95c-0.8,-37.69 -2.48,-94.71 -4.33,-148.52 -1.58,-45.93 -3.36,-89.8 -4.87,-115.96z"/>
     <path class="fil1" d="M11617.11 7700.58c111.47,51.76 220.64,105.81 327.41,162.05 98.18,51.71 195.44,105.84 291.71,162.32l221.56 -332.17c-175.74,-103.79 -356.09,-200.9 -540.69,-290.93 -181.26,-88.41 -366.36,-169.91 -554.94,-244.12 98.02,155.71 189.96,340.07 254.94,542.85z"/>
     <path class="fil1" d="M7102.29 7161.84c86.81,-17.18 174.22,-32.84 262.21,-46.94 97.57,-15.64 194.34,-29.22 290.26,-40.7 71.6,-143.98 179.23,-264.77 392.49,-267.8 -5.68,-43.89 -9.47,-99.02 13.83,-168.71 -182.11,10.97 -362.48,28.24 -540.85,51.59 -186.5,24.41 -371.85,55.73 -555.73,93.67 18.19,36.35 35.29,73.74 51.19,112.1 35.06,84.58 64.31,173.88 86.6,266.79z"/>
     <path class="fil1" d="M5697.84 9325.44l446.33 669.17 264.38 -280.31c-9.05,-7.53 -17.74,-15.25 -26.08,-23.17 -58.75,-55.83 -99.69,-121.36 -117.94,-194.59 -12.7,-50.92 -14.24,-104.88 -2.98,-161.13 -7.93,2.16 -15.39,4.15 -22.34,5.95 -19.63,5.09 -47.63,1.5 -74.04,-10.82 -18.68,-8.71 -39.08,-22.3 -56.37,-40.35 -17.27,-18.03 -32.02,-40.74 -40.13,-67.97 -109.69,43.23 -224.12,75.68 -340.59,97.76 -10.06,1.91 -20.15,3.72 -30.24,5.48z"/>
     <path class="fil1" d="M8252.19 8512.8l118.95 -42.91c-6.69,-15.73 -12.47,-31.63 -17.24,-47.64 -29.85,33.5 -63.84,63.96 -101.72,90.56z"/>
     <path class="fil1" d="M7679.58 8719.41l276.76 -99.86c-76.76,5.99 -153.42,-3.13 -225.7,-26.03 -24.31,-7.7 -48.12,-16.97 -71.28,-27.73 11.22,48.02 17.99,96.9 19.85,141.63 0.16,3.96 0.28,7.96 0.36,11.99z"/>
     <path class="fil1" d="M10618.59 5743.92c-34.39,44.8 -81.1,75.98 -128.57,96.22 -20.93,8.92 -42.39,15.68 -63.24,20.51 27.26,48.15 44.28,87.36 53.95,112.46 4.82,-0.94 9.64,-1.79 14.47,-2.55 85.18,-13.27 153.5,-3.98 205.87,18.69 8.48,3.67 16.54,7.68 24.19,12.01 -25.42,-89.28 -61.51,-175.63 -106.67,-257.33z"/>
     <path class="fil1" d="M10315.06 5373.76c-37.62,23.64 -71.86,55.58 -99.07,89.42 -23.37,29.08 -40.91,58.31 -50.01,83.31 78.62,68.34 139.4,137.02 185.96,199.63 21.65,-0.11 54.54,-6.58 89.01,-21.28 43.51,-18.55 85.39,-50.55 100.35,-99.81l0.83 -3.01c-64.83,-91.78 -141.46,-175.5 -227.07,-248.26z"/>
    </g>
    <g id="dark_x0020_red">
     <path class="fil2" d="M6901.27 6667.97c197.2,-41.66 398.23,-76.04 602.76,-102.81 205.85,-26.94 414.15,-45.93 624.54,-56.62 106.33,-149.95 256.3,-169.32 343.87,-180.61 57.7,-7.45 24.35,2.35 47.27,-42.35 -5.24,-8.5 -9.98,-16.98 -14.26,-25.46 -18.87,-37.41 -28.39,-73.9 -30.2,-109.19 -317.82,2.2 -633.52,22.56 -945.8,60.69 -292.76,35.75 -582.2,87 -867.24,153.46 88.08,84.63 169.23,186.95 239.05,302.89z"/>
     <path class="fil2" d="M11759.2 6809.09c-99.58,82.44 -204.11,164.71 -313.74,246.7 178.99,71.5 354.63,149.34 526.59,233.22 189.41,92.39 374.7,192.28 555.45,299.25l193.31 -289.82c-151.15,-89.94 -304.88,-174.83 -460.93,-254.58 -164.34,-83.98 -331.34,-162.26 -500.69,-234.76z"/>
     <path class="fil2" d="M12166.65 8129.28c-91.83,-53.72 -185.36,-105.68 -280.51,-155.79 -74.56,-39.27 -149.49,-77.11 -224.75,-113.46 35.66,151.8 54.56,311.6 48.97,475.6 -6.04,177.06 5.26,326.33 15.44,454.6l440.84 -660.95z"/>
     <path class="fil2" d="M7598.12 7207.61c-72.48,9.36 -143.82,19.67 -213.99,30.92 -86.1,13.8 -171.75,29.13 -256.91,45.98 20.19,120.76 28.48,246.48 22.51,374.99l-0.54 10.81c53.18,-43.2 111.57,-71.16 168.83,-98.59 66.11,-31.66 130.41,-62.46 174.03,-120.15 32.38,-42.82 57.86,-112.58 85.27,-187.62 6.78,-18.57 13.67,-37.42 20.8,-56.35z"/>
     <path class="fil2" d="M8079.82 12896.67l453.51 679.93 751.93 -1127.33c-32.71,14.61 -66.21,31.86 -100.01,53.57 -66.13,42.49 -131.81,123.9 -200.93,209.57 -169.06,209.55 -356.32,441.65 -680.9,334.28 -92.89,-30.73 -166.02,-84.22 -223.59,-150.02z"/>
     <path class="fil2" d="M7798.07 12474.24l189.41 283.97c-61.26,-120.18 -91.37,-254.04 -106.07,-362.39l-3.86 4.44 -3.29 3.47c-24.79,27.69 -50.87,51.03 -76.19,70.51z"/>
     <path class="fil2" d="M10315.07 5373.74c-37.63,23.64 -71.87,55.57 -99.07,89.42 -23.38,29.08 -40.91,58.31 -50.02,83.31 78.63,68.34 139.41,137.02 185.96,199.63 21.65,-0.11 54.55,-6.57 89.02,-21.28 43.5,-18.55 85.38,-50.55 100.34,-99.81l0.83 -3.01c-64.83,-91.78 -141.45,-175.5 -227.06,-248.26z"/>
     <path class="fil2" d="M11089.92 5230.45c-1.9,-34.54 24.56,-64.08 59.11,-65.98 34.55,-1.89 64.09,24.57 65.98,59.11 0.97,16.94 2.2,45.97 3.48,80.07 15.91,-7.39 32.71,-14.44 49.99,-21.68 79.69,-33.41 174.11,-73 162.04,-166.15 -0.19,-1.55 -0.08,0.19 -0.83,-4.06 -14.65,-82.65 -127.17,-181.35 -273.99,-257.31 -45.91,-23.75 -94.81,-44.9 -144.92,-62.34 45.13,52.64 73.44,134.1 22.17,192.75 -27.19,31.11 -77.61,21.74 -91.47,106.5 -25.31,154.94 5.23,207.99 -58.97,355.02 -58.13,133.13 -180.57,90.7 -211.31,142.61 17.52,26.61 34.14,53.78 49.81,81.46 85.16,150.4 142.48,316.07 163.4,488.15 236.61,-119.51 224.67,-405.51 217.1,-585.77 -1.15,-27.31 -2.22,-52.69 -2.33,-75.96 -1.85,-50.07 -2.67,-100.35 -4.4,-150.48 -1.58,-45.94 -3.37,-89.81 -4.87,-115.96z"/>
     <path class="fil2" d="M10618.6 5743.9c-34.39,44.8 -81.11,75.98 -128.58,96.23 -20.93,8.92 -42.39,15.67 -63.24,20.51 27.26,48.14 44.29,87.36 53.95,112.46 4.82,-0.95 9.64,-1.8 14.47,-2.56 85.18,-13.27 153.5,-3.97 205.87,18.69 8.48,3.67 16.54,7.68 24.19,12.02 -25.41,-89.28 -61.51,-175.64 -106.66,-257.34z"/>
    </g>
    <g id="light_x0020_brown">
     <path class="fil3" d="M8475.17 10351.56c-2.09,-1.52 -4.09,-3.17 -5.99,-4.96 -19.6,-16.04 -39.79,-30.76 -60.48,-44.2 -81.13,-52.72 -170.39,-86.32 -262.68,-103.82 -1.24,-0.19 -2.48,-0.42 -3.7,-0.69 -96.24,-17.79 -195.7,-18.18 -292.56,-4.53 -16.41,2.31 -33.32,5.15 -50.66,8.5 -8.39,1.62 -19.75,10.52 -32.97,24.43 219.23,78.64 353.89,286.99 354.33,287.67 16.43,25.3 12.25,58.04 -8.34,78.49l-162.02 160.9c-24.52,24.38 -64.17,24.28 -88.55,-0.24 -4.95,-4.98 -8.89,-10.58 -11.82,-16.55 -13.68,-23.32 -107.44,-174.71 -268.47,-234.7 -17.02,29.13 -27.74,48.24 -27.87,48.47 -1.36,2.42 -2.86,4.71 -4.48,6.88 26.48,79.8 50.84,168.59 74.2,267 7.99,33.73 -12.87,67.56 -46.6,75.55 -33.73,7.99 -67.56,-12.87 -75.55,-46.6 -68.09,-286.87 -142.58,-483.31 -252.32,-603.56 -104.51,-114.51 -246.91,-161.79 -455.3,-156.22 -99.56,2.66 -189.13,40.07 -265.54,90.83 -23.03,15.3 -44.87,31.79 -65.43,48.93 451.48,3.31 702.07,519.03 954.36,1038.48 152.62,314.25 305.96,629.9 500.46,817.29 45.95,-66.22 106.34,-131.96 177.83,-195.46 108.19,-96.1 243.19,-188.25 392.72,-269.8 -14.47,-84.32 -17.49,-165.75 -9.17,-241.7 19.78,-180.71 103,-331.14 248.29,-419.38 15.52,-9.43 31.35,-18.15 47.44,-26.24 -1.85,-10.83 -3.83,-21.63 -5.9,-32.39 -50.2,-260.36 -157.31,-438.62 -293.21,-552.36z"/>
     <path class="fil3" d="M5790.46 6243.67c22.5,12.2 51.24,19.38 86.87,19.5 34.54,0 62.55,28 62.55,62.55 0,34.54 -28,62.55 -62.55,62.55 -80.03,-0.26 -142.19,-24.07 -187.96,-62.42 -15.63,-13.09 -29.21,-27.78 -40.83,-43.72 -230.33,81.7 -375.56,235.15 -521.26,389.17 -23.01,24.32 -46.04,48.66 -69.39,72.78 36.39,-13 76.54,-18.13 117.87,-13.47l1.87 0.17c11.27,1.34 22.28,3.38 33.01,6.05 80.18,-82.86 167.26,-160.51 280.85,-218.31 127.36,-64.82 285.59,-103.33 500.14,-93.83 151.96,6.72 305.9,80.47 440.01,201.98 76.77,69.56 147.32,154.93 207.34,252.32 0.9,1.35 1.76,2.75 2.57,4.19 34.64,56.69 65.72,117.4 92.4,181.4 73.07,175.31 113.56,375.98 104.23,586.76 -13.4,302.57 -129.32,625.29 -398.7,922.62 -23.68,26.13 -48.48,51.03 -74.28,74.72l18.86 22.87c21.94,26.68 18.1,66.11 -8.58,88.06 -26.69,21.94 -66.11,18.09 -88.06,-8.59l-18.72 -22.7c-123.73,91.76 -264.56,160.08 -413.09,205.85 -238.86,73.59 -498.28,89.01 -738.59,49.74 -161.65,-26.42 -284.7,53.69 -384.36,146.8 281.46,98.18 610.89,126.18 927.19,74.14 345.12,-56.77 673.63,-208.99 905.02,-469.44 231.31,-260.37 364.57,-537.55 423.96,-809.21 0.3,-1.67 0.65,-3.34 1.08,-5.01 19.36,-89.91 30.65,-179.21 34.74,-267.08 11.86,-255.38 -36.88,-499.04 -124.72,-710.98 -87.46,-210.98 -213.46,-390.01 -356.72,-517.28 -137.17,-121.87 -289.06,-195.39 -435.87,-202.2l-5.2 -0.2c-1.04,-0.01 -2.08,-0.06 -3.13,-0.12 -116.7,-4.85 -218.44,2.85 -308.54,20.36z"/>
     <path class="fil3" d="M8434.33 8580.03l-505.5 182.39c92.04,86.85 138,196.87 149.96,309.42 6.34,59.7 2.9,120.15 -8.43,178.13 58.29,-51.32 123.31,-100.2 195.2,-145.25 152.29,-95.44 335.28,-173.77 549.79,-221.68 -101.58,-48.42 -202.2,-115.47 -284.04,-193.2 -36.36,-34.54 -69.16,-71.35 -96.99,-109.81z"/>
     <path class="fil3" d="M8437.57 7753.4l1.64 3.21c44.03,86.1 65.04,177.97 65.26,268.52 15.34,-28.1 38.17,-54.36 72.1,-72.02 50.21,-26.13 101.11,-25.08 141.39,-16.37 14.81,-37.51 43.24,-79.27 97.68,-108 58.49,-30.86 113.44,-27.74 154.85,-16.11 22.58,-41.06 64.5,-86.27 142.07,-105.12 7.88,-1.92 15.14,-3.15 21.73,-3.73 32.59,-2.82 68.64,5.58 105.33,23.67 14.33,-22.37 29.52,-45.24 45.51,-68.49 -85.87,3.69 -162.61,-14.91 -231.83,-31.69 -49.4,-11.98 -94.24,-22.83 -129.32,-20.76 -35.62,2.11 -75.48,20.71 -118.52,40.81 -89.43,41.74 -189.79,88.59 -335.47,56.9 -28.09,-6.11 -53.4,-13.76 -76.29,-22.57 15.36,21.58 29.47,44.44 42.15,68.52l1.7 3.23z"/>
    </g>
    <g id="dark_x0020_brown">
     <path class="fil4" d="M4906.11 7037.8c-9.4,-30.15 -12.83,-62.45 -9.1,-95.5l0.16 -1.63c2.35,-19.7 7.11,-38.52 13.96,-56.26 -64.76,55.7 -135.57,107.15 -217.35,150.77 -258.09,137.65 -442.75,340.97 -553.82,568.61 -83.53,171.21 -125.46,355.77 -125.7,536.1 -0.23,179.93 40.78,355.8 123.09,510.14 42.28,79.28 95.59,152.96 159.93,218.66 0.74,-48.65 -23.68,-84.27 -46.79,-117.98 -26.06,-37.99 -51.01,-74.37 -58.48,-126.82 -11.48,-80.57 0.9,-132.36 13.93,-186.8 12.19,-50.95 25.09,-104.87 8.8,-198.9 -37.39,-215.81 -2.83,-449.91 107.05,-659.87 99.74,-190.6 261.48,-361.14 487.61,-479.65 24.57,-12.88 47.77,-26.91 69.81,-41.82 9.1,-6.17 18.06,-12.52 26.9,-19.06z"/>
     <path class="fil4" d="M7651.15 11727.7c81.75,141.68 168.74,267.48 266.02,361.2 45.95,-66.22 106.33,-131.96 177.83,-195.46 108.18,-96.1 243.18,-188.25 392.72,-269.8 -14.47,-84.32 -17.49,-165.75 -9.17,-241.7 19.78,-180.71 102.99,-331.14 248.28,-419.38 15.52,-9.43 31.36,-18.15 47.44,-26.24 -1.85,-10.83 -3.82,-21.63 -5.89,-32.39 -7.46,-38.69 -16.19,-75.54 -26.07,-110.66 -65.37,65.6 -272.68,277.81 -276.58,283.26 -134.12,187.52 -660.45,429.03 -814.58,651.17z"/>
    </g>
    <g id="light_x0020_yellow">
     <path class="fil5" d="M8024.34 12154.31c-11.69,16.47 -22.25,32.89 -31.6,49.2 -0.06,102.07 16.36,613.62 349.93,723.96 242.46,80.2 400.94,-116.23 544.02,-293.57 75.78,-93.93 147.79,-183.18 230.86,-236.55 84.31,-54.17 163.08,-82.83 234.77,-108.9 119.06,-43.31 214.9,-78.2 263.22,-239.34 0.59,-2.45 1.33,-4.84 2.2,-7.18l8.89 -30.39c81.96,-280.42 135.24,-462.68 438.56,-772.49 24.24,-24.65 63.89,-24.98 88.55,-0.73 24.65,24.24 24.98,63.89 0.74,88.55 -262.22,267.83 -323.26,433.92 -392.33,667.31 294.91,-24.66 525.79,-58.74 705.68,-128.28 190.41,-73.61 325.7,-188.79 424.36,-378.96 101.33,-195.32 109.65,-317.57 117.44,-432.22 8.6,-126.56 16.65,-244.91 124.38,-427.57 125.8,-213.32 107.24,-539.43 80.61,-734.39 -80.65,144.92 -159.97,271.99 -416.93,347.5 -394.3,115.87 -709.14,-44.38 -1026.22,-205.77 -107.1,-54.51 -214.47,-109.17 -324.26,-152.06 16.63,44.56 49.7,98.46 85.76,157.19 96.79,157.65 211.18,343.98 147.34,566.01 -71.43,248.44 -292.06,295.61 -527.63,345.95 -96.09,20.54 -195.01,41.69 -282.37,78.25 -1.57,0.74 -3.18,1.43 -4.81,2.04 -25.8,11.02 -50.56,23.42 -73.91,37.6 -109.69,66.61 -172.88,183.56 -188.43,325.68 -16.58,151.45 20.2,330.62 111.49,510.11 159.22,313.04 134.11,598.78 32.57,773.74 -51.83,89.32 -124.43,151.63 -204.84,177.3 -84.7,27.06 -175.65,13.97 -258.94,-49.57 -120.43,-91.85 -224.73,-297.21 -259.1,-652.46zm1747.29 -1670.05c-5.7,-58.38 5.99,-114.04 29.63,-157.05 27.73,-50.44 71.88,-85.06 125.85,-91.84l5.82 -0.5c51.86,-4.43 100.13,18.16 136.85,58.87 32.41,35.93 55.92,87 63.2,145l0.8 8.19c5.7,58.38 -5.99,114.05 -29.63,157.05 -27.73,50.45 -71.88,85.06 -125.84,91.83l-5.82 0.5c-51.85,4.43 -100.13,-18.16 -136.85,-58.86 -32.41,-35.93 -55.92,-87 -63.2,-145l-0.8 -8.19zm139.52 -96.7c-12.07,21.94 -17.92,51.63 -14.84,84.07l0.73 5.61c3.98,31.77 15.8,58.56 31.8,76.31 10.43,11.56 21.89,18.35 32.21,17.94l2.04 -0.28c11.45,-1.44 22.53,-11.88 31.16,-27.57 12.06,-21.94 17.92,-51.64 14.84,-84.07l-0.73 -5.61c-3.99,-31.77 -15.8,-58.56 -31.81,-76.31 -10.43,-11.56 -21.89,-18.34 -32.22,-17.93l-2.03 0.28c-11.45,1.43 -22.53,11.87 -31.15,27.57zm-572.09 547.03c57.3,-16.84 115.23,-15.42 162.57,0.45 54.57,18.3 96.46,55.55 112.7,107.34l0.91 3.21c14.7,50.98 1.19,103.44 -32.86,147.51 -29.62,38.34 -75.66,70.57 -131.32,88.02l-5.24 1.43 0.02 0.09c-57.3,16.83 -115.24,15.42 -162.57,-0.45 -54.57,-18.3 -96.46,-55.54 -112.7,-107.34l-0.91 -3.21c-14.7,-50.98 -1.19,-103.44 32.86,-147.5 29.62,-38.35 75.66,-70.57 131.33,-88.02l5.24 -1.44 -0.02 -0.09zm122.83 119.17c-24.24,-8.13 -55.33,-8.43 -87.5,1.02l-0.02 -0.06 -3.24 1.11c-30.65,9.61 -54.93,25.98 -69.51,44.85 -9.72,12.58 -14.35,25.34 -11.79,35.55l0.44 1.35c3.48,11.11 15.75,20.2 32.74,25.9 24.24,8.13 55.33,8.43 87.5,-1.02l0.02 0.06 3.24 -1.11c30.65,-9.61 54.94,-25.98 69.51,-44.85 9.72,-12.59 14.35,-25.34 11.79,-35.55l-0.44 -1.35c-3.48,-11.11 -15.75,-20.2 -32.74,-25.91z"/>
     <path class="fil5" d="M9228.15 10318.45c-16.26,-30.48 -4.72,-68.38 25.76,-84.63 30.48,-16.25 68.37,-4.72 84.63,25.76 49.73,93.45 71.45,204.13 62.24,318.52 -5.05,62.68 -19.39,126.69 -43.51,189.78 97.18,-37.4 172.78,-93.63 202.37,-196.56 48.71,-169.44 -50.05,-330.32 -133.61,-466.43 -59.72,-97.29 -113.03,-184.11 -115.46,-268.51 -58.17,-16.2 -117.23,-27.93 -177.46,-33.5 -205.41,-19.01 -351.07,-71.9 -445.09,-142.27 -52.23,-39.09 -89.24,-83.8 -112.3,-131.55 -23.91,-49.52 -32.71,-101.84 -27.85,-154.35 5.84,-63.11 31.52,-125.6 74.36,-182.85 46.23,-61.77 114.35,-120.29 187.12,-178.72 -185.82,44.96 -344.74,114.25 -477.65,197.54 -187.96,117.8 -324.09,263.58 -410.75,407.86 -84.25,140.26 -120.87,277.31 -112,383.19 2.12,25.33 6.81,48.45 14.02,68.9l9.65 -1.4c84.63,-11.92 171.23,-14.32 256.88,-5.44 -0.1,-84.68 11.95,-216.47 80.17,-291.51 23.3,-25.6 62.95,-27.46 88.55,-4.17 25.6,23.29 27.46,62.95 4.17,88.55 -47.44,52.18 -50.16,165.59 -47.57,228.61 91.46,22.21 180.08,58.83 262.11,112.13 12.33,8.01 24.5,16.4 36.5,25.16l13.53 -9.55c63.61,-44.85 123.18,-86.85 154.5,-149.5 15.44,-30.89 53,-43.41 83.89,-27.97 30.88,15.44 43.41,53 27.96,83.89 -43.2,86.42 -109.79,136.4 -181.8,187.33 129.96,130.5 230.66,317.46 280.05,573.59l1.43 7.5c76.59,-25.32 156.02,-42.31 233.74,-58.91 23.71,-5.07 47.24,-10.09 70.37,-15.33 46.38,-79.7 72.06,-163.95 78.61,-245.35 7.34,-91.09 -9.25,-177.91 -47.53,-249.83z"/>
     <path class="fil5" d="M11242.48 7203.07c-425.39,299.69 -920.7,594.13 -1493.3,875.96 68.45,82.43 41.79,186.46 16.27,285.93 -1.94,7.56 -3.87,15.09 -5.74,22.6 80.81,-5.03 162.5,2.06 243.07,21.98 73.17,18.09 145.12,46.72 214.33,86.38 110.79,-43.25 505.88,-173.03 945.64,-25.3 32.78,10.97 50.46,46.44 39.49,79.23 -10.97,32.78 -46.45,50.46 -79.23,39.49 -307.01,-103.14 -589.2,-57.8 -748.94,-13.52 100.21,37.37 200.59,51.26 296.09,64.47 210.85,29.15 400.66,55.42 544.89,288.15 18.15,29.39 9.04,67.94 -20.36,86.09 -29.4,18.15 -67.94,9.04 -86.1,-20.36 -113.02,-182.38 -275.33,-204.84 -455.61,-229.77 -149.32,-20.65 -309.57,-42.83 -473.65,-145l-0.31 -0.19 -0.12 -0.08 -0.11 -0.07c-66.47,-41.43 -135.73,-70.5 -205.94,-87.86 -5.53,-1.37 -11.07,-2.66 -16.61,-3.88 26.61,20.46 55.67,44.54 87.34,73.04 96.98,87.28 107.61,197.92 59.85,315.03 -31.21,76.54 -89.01,155.57 -163.75,231.11 -72.24,73.02 -160.92,143.42 -256.67,205.28 -21.6,13.95 -43.61,27.45 -65.9,40.48 -1.42,0.91 -2.86,1.76 -4.33,2.54 -281.76,163.48 -609.65,247.09 -780.1,122.53 -108.02,-78.94 -106.72,-154.5 -46.38,-237.06 34.29,-46.93 91.44,-92.69 156.57,-144.82 58.77,-47.06 124.72,-99.87 181.51,-161.11 -7.52,-4.69 -13.96,-7.72 -19.16,-8.87 -14.69,1.27 -29.24,2.68 -43.67,4.22 -39.16,34.07 -82.41,68.31 -125.37,102.32 -83.99,66.48 -166.89,132.1 -213.89,194.9 -28.94,38.67 -46.15,79.39 -49.82,119.07 -2.78,30.05 2.3,60.08 16.07,88.61 14.63,30.31 39.15,59.45 74.52,85.93 76.68,57.4 200.86,101.03 381.32,117.73 249.15,23.06 467.12,134.01 683.99,244.39 294.93,150.12 587.78,299.18 933.98,197.44 218.87,-64.31 281.93,-178.14 353.33,-307 60.07,-108.43 125.3,-226.13 274.18,-340.36 249.12,-191.14 235.15,-366.81 211.72,-661.5 -10.55,-132.65 -22.87,-287.68 -16.33,-479.53 7.05,-206.54 -27.74,-406.43 -86.5,-590.67 -64.3,-201.61 -157.52,-384.85 -256.28,-537.96z"/>
     <path class="fil5" d="M10921.54 6754.72l405.51 -346.92c-63.83,-38.68 -145.44,-63.73 -245.61,-68.65 -253.9,-12.46 -572.36,117.07 -779.55,266.56 -135.46,97.74 -267.83,224.66 -387.21,384.7 66.45,-50.67 134.82,-97.03 204.24,-137.22 45.19,-26.17 90.84,-49.74 136.73,-70.29 103.27,-60.18 219.98,-117.75 339.92,-161.95 104.62,-38.56 211.87,-66.9 315.16,-77.91 34.41,-3.66 65.28,21.28 68.93,55.68 3.66,34.41 -21.27,65.28 -55.68,68.93 -55.68,5.93 -113.25,17.74 -171.29,33.97 57.27,9.67 113.7,27.03 168.83,53.09z"/>
     <path class="fil5" d="M11379.15 6445.65l-398.35 340.8c26.02,15.61 51.16,32.88 75.3,51.88 17.5,13.78 36.54,29.45 57.04,47.04 6.97,5.98 13.94,12.05 20.91,18.2 127.18,-85.57 248.1,-171.48 362.88,-257.53 -16.64,-76.09 -55.59,-146.51 -117.78,-200.38z"/>
     <path class="fil5" d="M10678.71 7044.89l75.29 101.71c93.46,-56.87 184,-113.96 271.67,-171.22 -15.26,-12.94 -31.01,-25.8 -47.08,-38.45 -21.02,-16.54 -41.82,-30.92 -62.37,-43.24 -12.24,-7.33 -24.61,-14.08 -37.08,-20.28l-200.43 171.47z"/>
     <path class="fil5" d="M10549.95 7065.6c-1.7,-20.84 7.07,-42.07 25.1,-55.43 17.35,-12.86 39.17,-15.42 58.12,-8.75l181.17 -155c-157.97,-53.62 -330.26,-26.97 -501.1,48.08 -1.86,0.93 -3.74,1.77 -5.66,2.51 -42.13,18.78 -84.17,40.46 -125.87,64.6 -260.54,150.85 -507.2,395.87 -687.98,625.59 -58.77,74.67 -110.25,147.21 -152.74,214 8.71,8.49 17.31,17.48 25.75,26.95 8.59,9.63 17.08,19.81 25.43,30.49 12.67,-5.72 25.27,-11.44 37.86,-17.17l1119.92 -775.86z"/>
     <path class="fil5" d="M10646.16 7211.35l-66.67 -90.06 -806.37 558.64c314.89,-153.48 605.47,-310.07 873.04,-468.58z"/>
     <path class="fil5" d="M7457.79 7641.23c-27.79,15.77 -56.55,29.55 -85.61,43.46 -101.6,48.66 -207.58,99.44 -261.03,269.35 -32.71,149.44 -86.1,300.24 -163.66,449.15 11.13,3.09 21.58,6.87 31.25,10.99 22.06,-33.25 58.24,-67.84 117.13,-84.9 63.47,-18.39 116.8,-4.78 155.06,14.29 24.73,-28.69 62.61,-57.56 118.98,-68.96 -63.85,-138.83 -69.65,-290.75 -26.46,-427.09 23.76,-75.03 62.38,-145.37 114.34,-206.28z"/>
     <path class="fil5" d="M7970.7 6944.89c-160.35,46.83 -221.81,214.98 -275.47,361.91 -30.05,82.3 -58.06,158.96 -99.48,215.83 13.18,-8.2 26.78,-15.95 40.8,-23.22 145.64,-75.57 308.07,-84.98 452.92,-39.09 32.51,10.3 64.14,23.4 94.52,39.15l-3.47 -5.54c-8.02,-12.83 -14.71,-23.52 -18.28,-27.26 -1.15,-0.91 -13.44,-5.48 -28.24,-10.97 -73.78,-27.43 -182.41,-67.83 -220.72,-247.41 -26.41,-123.82 11.37,-204.78 57.43,-263.38z"/>
     <path class="fil5" d="M4403.45 9006.28l-0.06 0.27c-7.44,36.75 -15.51,69.95 -22.8,99.95 -20,82.22 -32.08,131.91 -1.9,153.62 33.75,24.25 92.17,-38.01 167.02,-117.81 8.91,-9.5 18,-19.19 27.26,-28.96 1.02,-1.15 2.08,-2.26 3.17,-3.33 130.41,-137.28 298.43,-292.63 560.98,-249.73 221.91,36.26 461.35,22.06 681.68,-45.81 133.35,-41.09 259.5,-101.8 370.19,-182.8l-76.33 -92.57c-21.94,-26.69 -18.1,-66.11 8.58,-88.06 26.68,-21.94 66.11,-18.1 88.06,8.58l76.22 92.43c21.24,-19.74 41.68,-40.39 61.24,-61.98 34.94,-38.56 67.06,-77.56 96.51,-116.87 -8.15,0.69 -16.38,1.05 -24.7,1.05 -2.07,0 -4.12,-0.11 -6.14,-0.3 -72.93,-1.53 -138.52,-29.85 -186.05,-74.85 -48.64,-46.06 -78.46,-109.6 -78.45,-180.21l0.05 -5.05c1.48,-72.32 33.99,-137.35 85.33,-184 50.3,-45.69 118.73,-73.95 193.36,-73.95 2.07,0 4.12,0.1 6.14,0.3 72.94,1.53 138.53,29.85 186.05,74.85 13.15,12.45 24.91,26.15 35.1,40.91 35.59,-109.97 54.41,-219.42 59.12,-325.98 8.47,-191.31 -28.39,-373.71 -94.9,-533.29 -17.61,-42.24 -37.27,-82.84 -58.68,-121.53l-193.72 72.93c-32.37,12.19 -68.51,-4.17 -80.69,-36.54 -12.19,-32.38 4.17,-68.51 36.54,-80.7l169.91 -63.97c-43.81,-61.81 -92.28,-116.78 -143.79,-163.45 -112.87,-102.26 -239.49,-164.21 -361.52,-169.6 -189.89,-8.4 -328.03,24.72 -437.83,80.6 -86.94,44.24 -157.68,103.63 -222.78,168.32 7.63,7.07 14.81,14.56 21.47,22.44 41.67,49.28 63.65,113.35 56.06,180.52l-0.16 1.62c-7.95,66.74 -43.61,123.55 -94.95,161.58 -50.17,37.15 -115.3,56.2 -183.65,48.49l-1.86 -0.19c-58.42,-6.95 -110.19,-32.35 -149.42,-69.22 -7.88,5.73 -15.8,11.3 -23.75,16.68l-0.11 -0.17c-25.91,17.54 -53.14,34 -81.96,49.11 -167.71,87.89 -295.53,207.36 -384.75,342.2 45.07,-24.58 98.65,-36.08 154.35,-29.8l1.87 0.18c68.99,8.24 128.69,42.18 169.44,90.35 41.67,49.27 63.65,113.35 56.07,180.53l-0.16 1.61c-7.94,66.74 -43.61,123.55 -94.95,161.59 -50.17,37.15 -115.29,56.2 -183.64,48.49l-1.87 -0.19c-68.99,-8.21 -128.72,-42.15 -169.45,-90.33 -25.23,-29.84 -43.23,-65.12 -51.83,-103.21 -31.7,109.17 -42.76,221.41 -33.7,330.13l169.05 -63.64c32.37,-12.19 68.51,4.17 80.7,36.54 12.19,32.37 -4.17,68.52 -36.54,80.7l-196.45 73.96c8.5,87.53 -4.95,143.77 -17.79,197.39 -10.09,42.23 -19.71,82.42 -11.48,140.19 3.35,23.49 20.24,48.13 37.88,73.84 38.37,55.93 79.11,115.37 66.87,218.51 -4.62,38.94 -10.77,74.74 -17.43,107.7zm820.54 -1507.06c18.16,29.39 9.04,67.94 -20.35,86.09 -29.4,18.15 -67.94,9.04 -86.1,-20.35l-116.08 -187.04c-18.15,-29.4 -9.04,-67.94 20.36,-86.1 29.39,-18.15 67.94,-9.04 86.09,20.35l116.08 187.05zm-560.39 812.92l9.24 -3.4c68.91,-25.58 139.82,-26.66 199.51,-7.4 64.25,20.72 116.11,64.52 141.37,126.87l0.09 -0.04 2.28 5.93c0.58,1.58 1.09,3.18 1.54,4.78 21.85,63.67 11.89,132.11 -22.26,191.88 -32.82,57.46 -88.45,107.31 -159.11,135.93l0.04 0.09 -9.24 3.4c-68.91,25.57 -139.83,26.65 -199.52,7.4 -64.25,-20.72 -116.1,-64.52 -141.37,-126.86l-0.09 0.03 -2.19 -5.71 -0.08 0.04c-24.08,-64.9 -14.41,-135.4 20.72,-196.9 32.83,-57.46 88.46,-107.31 159.12,-135.92l-0.04 -0.09zm976.55 -109.41l5.24 -1.33c1.89,-0.48 3.78,-0.87 5.67,-1.17 71.79,-16.41 142.8,-7.71 200.55,20.15 62.63,30.22 110.05,82.7 128.08,150.61l0.14 0.52 0.11 -0.03 0.8 3.1c0.5,2.01 0.91,4.01 1.21,6.01 14.93,67.94 -2.54,136.76 -43.26,193.61 -39.51,55.18 -101.57,99.3 -176.78,119.27l-0.53 0.14 0.03 0.11 -5.24 1.34c-1.89,0.48 -3.78,0.86 -5.68,1.15 -71.8,16.42 -142.81,7.71 -200.55,-20.15 -62.63,-30.23 -110.05,-82.69 -128.08,-150.62l-0.14 -0.52 -0.11 0.02 -0.79 -3.09c-0.51,-2 -0.91,-4 -1.22,-6 -14.92,-67.95 2.55,-136.77 43.27,-193.62 39.52,-55.18 101.58,-99.31 176.79,-119.27l0.53 -0.13 -0.03 -0.12zm-58.06 -759.55c74.94,8.95 139.8,45.8 184.02,98.1 45.15,53.41 68.98,122.82 60.76,195.58l-0.17 1.75c-8.61,72.26 -47.24,133.8 -102.86,174.99 -54.46,40.32 -125.18,60.99 -199.42,52.61l-2.02 -0.21c-74.96,-8.93 -139.8,-45.78 -184.03,-98.09 -45.15,-53.4 -68.98,-122.82 -60.76,-195.58l0.15 -1.75c8.64,-72.26 47.28,-133.8 102.88,-174.98 54.46,-40.32 125.18,-60.99 199.42,-52.62l2.02 0.19zm257.08 -836.17c14,0 28.45,1.39 43.18,4.06 54.87,9.94 100.73,38.31 132.98,79.11 31.65,40.04 49.73,91.31 49.73,147.94 0,15.46 -1.56,32.2 -4.81,50.11 -12.97,71.57 -51.93,136.07 -104.41,182.45 -53.61,47.36 -121.8,76.68 -191.82,76.68 -14.01,0 -28.46,-1.39 -43.18,-4.05 -54.86,-9.94 -100.73,-38.31 -132.98,-79.11 -31.65,-40.04 -49.73,-91.33 -49.73,-147.94 0,-15.47 1.57,-32.21 4.81,-50.12 12.97,-71.57 51.93,-136.06 104.41,-182.44 53.62,-47.37 121.79,-76.69 191.82,-76.69zm545.84 540.84c74.38,0 143.15,29.78 194.17,77.91 51.13,48.23 84.61,115.17 88.22,189.32 0.33,6.82 0.5,11.16 0.5,13.13 0,69.87 -27.17,133.07 -72.08,179.8 -44.64,46.43 -106.79,76.25 -177.07,79.69 -6.85,0.33 -11.41,0.5 -13.44,0.5 -74.39,0 -143.15,-29.78 -194.18,-77.91 -51.13,-48.23 -84.59,-115.16 -88.22,-189.31 -0.32,-6.83 -0.49,-11.16 -0.49,-13.14 0,-69.87 27.18,-133.07 72.08,-179.8 44.64,-46.43 106.79,-76.24 177.06,-79.68 6.85,-0.33 11.41,-0.5 13.44,-0.5zm-363.75 404.76c5.28,34.14 -18.11,66.1 -52.24,71.38 -34.14,5.28 -66.11,-18.11 -71.39,-52.24l-34.09 -217.49c-5.28,-34.13 18.11,-66.09 52.24,-71.38 34.13,-5.27 66.11,18.11 71.38,52.24l34.09 217.49zm-579.74 474.07c34.55,-1.22 63.54,25.8 64.76,60.34 1.22,34.55 -25.8,63.54 -60.34,64.76l-259.14 9.84c-34.55,1.21 -63.54,-25.8 -64.76,-60.34 -1.22,-34.54 25.8,-63.54 60.34,-64.76l259.13 -9.84z"/>
     <path class="fil5" d="M7790.7 8812.26l-36.65 13.22c41.09,58.74 65.78,129.17 62.19,206.09 27.2,127.65 -4.23,265.89 -113.01,384.87 -89.92,98.37 -233.36,182.78 -441.06,234.3 -205.24,50.91 -405.47,44.3 -554.27,-6.28 -65.44,-22.24 -121.72,-53.06 -165.31,-91.44 -46.81,-41.22 -79.31,-91.14 -93.58,-148.7 -9.56,-38.53 -10.66,-79.7 -2.13,-123.07l-42.13 12.69c-0.72,3.06 -1.67,6.1 -2.87,9.11 -23.75,59.17 -27.72,114.12 -15.4,163.54 12.22,49.04 40.92,94.14 82.6,133.75 19.45,18.48 41.67,35.75 66.36,51.66 0.93,0.56 1.85,1.15 2.76,1.77 31,19.72 65.79,37.31 103.77,52.56 182.27,73.16 433.11,90.58 690.29,26.46 146.11,-36.43 259.45,-86.22 347.46,-143 85.78,-55.35 147.16,-117.34 191.27,-179.87 7.89,-11.18 14.79,-21.92 20.68,-32.14 47.48,-82.48 73.54,-189.01 62.53,-292.69 -10.67,-100.39 -57.08,-197.93 -154.26,-266.47 -3.1,-2.19 -6.19,-4.31 -9.24,-6.36z"/>
    </g>
    <g id="dark_x0020_yellow">
     <path class="fil6" d="M8517.48 11750.15c-128.59,72.49 -244.7,153.15 -339.08,236.99 -13.09,11.62 -25.72,23.28 -37.89,34.97 17.79,391.02 110.63,602.43 218.98,685.07 48.05,36.65 98.9,44.71 145.12,29.95 50.51,-16.13 98.05,-58.61 134.19,-120.89 83.45,-143.78 101.39,-383.92 -36,-654.04 -36.02,-70.83 -64.44,-141.98 -85.31,-212.06z"/>
     <path class="fil6" d="M9397.41 9240.57c-0.96,-0.94 -1.89,-1.92 -2.8,-2.93 -12.44,-12.97 -24.72,-25.83 -36.84,-38.52 -26.85,-28.11 -52.79,-55.26 -77.26,-80.5 -1.71,-1.57 -3.34,-3.26 -4.89,-5.04 -19.96,-20.55 -38.93,-39.76 -56.56,-57.1 -62.9,68.27 -134.46,125.57 -198.19,176.6 -57.6,46.11 -108.16,86.59 -133.5,121.27 -14.18,19.4 -12.39,38.69 19.39,61.92 115.01,84.05 349.19,26.46 573.14,-90.9 -28.06,-28.3 -55.63,-56.8 -82.49,-84.8z"/>
     <path class="fil6" d="M6215.52 10101.57l78.78 118.11c46.04,-48.52 101.12,-98 164.31,-139.97 93.61,-62.17 204.99,-108.05 331.77,-111.44 247.39,-6.61 419.6,53.01 550.96,196.94 58.45,64.04 107.57,144.28 150.71,242.52 28.96,-47.18 68.25,-108.33 110.1,-165.17 4.36,-12.02 12.21,-22.13 22.18,-29.35 28.04,-36.12 56.59,-68.95 83.43,-93.25 -12.69,-32.91 -20.69,-69.15 -23.93,-107.94 -7.66,-91.43 10.94,-199.54 56.71,-312.45 -97.57,61.82 -221.33,115.73 -378.55,154.92 -283.19,70.6 -562.12,50.32 -766.87,-31.87 -28.38,-11.39 -55.41,-24 -80.94,-37.74l-298.67 316.67z"/>
     <path class="fil6" d="M11242.47 7203.08c-38.71,27.27 -78.02,54.5 -117.88,81.67 32.35,109.95 13.24,208.54 89.37,300.4 451.93,545.36 34.43,841.41 190.85,1061.05 115.69,162.46 119.2,516.59 -95.06,637.47 -396.67,223.79 -294.16,282.89 -507.38,440.99 -386.5,286.56 -985.87,15.43 -1335.09,-254.58 -242.36,110.48 -492.9,150.81 -634.6,47.26 -108.02,-78.94 -106.72,-154.5 -46.37,-237.06 34.29,-46.92 91.44,-92.69 156.57,-144.82 58.77,-47.05 124.71,-99.86 181.5,-161.11 -7.52,-4.69 -13.96,-7.72 -19.16,-8.87 -14.69,1.27 -29.24,2.68 -43.67,4.22 -39.16,34.07 -82.41,68.32 -125.38,102.32 -83.98,66.49 -166.88,132.1 -213.89,194.9 -28.93,38.67 -46.15,79.39 -49.82,119.08 -2.78,30.04 2.31,60.08 16.08,88.61 14.63,30.31 39.15,59.45 74.52,85.92 76.69,57.4 200.87,101.03 381.32,117.73 249.15,23.06 467.11,134 683.99,244.39 294.93,150.13 587.78,299.18 933.99,197.45 218.86,-64.31 281.93,-178.15 353.32,-307.01 60.08,-108.43 125.31,-226.13 274.18,-340.36 249.12,-191.14 235.15,-366.8 211.72,-661.5 -10.55,-132.65 -22.87,-287.68 -16.33,-479.52 7.04,-206.55 -27.74,-406.43 -86.51,-590.68 -64.31,-201.61 -157.52,-384.84 -256.28,-537.95z"/>
     <path class="fil6" d="M8024.33 12154.31c-11.69,16.48 -22.25,32.9 -31.6,49.21 -0.07,102.06 16.36,613.62 349.93,723.95 242.47,80.2 400.94,-116.23 544.02,-293.56 75.78,-93.93 147.79,-183.18 230.85,-236.55 84.32,-54.18 163.09,-82.83 234.78,-108.91 119.06,-43.3 214.89,-78.2 263.22,-239.34 0.59,-2.44 1.33,-4.83 2.2,-7.18l8.89 -30.38c81.96,-280.43 135.24,-462.69 438.56,-772.49 24.25,-24.66 63.9,-24.98 88.56,-0.73 24.65,24.24 24.98,63.89 0.73,88.55 -262.22,267.83 -323.26,433.92 -392.33,667.31 294.92,-24.66 525.79,-58.74 705.69,-128.28 190.41,-73.62 325.71,-188.79 424.36,-378.96 101.33,-195.32 109.65,-317.57 117.44,-432.22 8.61,-126.56 16.66,-244.91 124.38,-427.57 125.8,-213.31 107.24,-539.43 80.61,-734.38 -80.66,144.93 -159.97,271.99 -416.93,347.5 -394.3,115.87 -709.14,-44.38 -1026.22,-205.77 -107.11,-54.51 -214.48,-109.17 -324.26,-152.06 16.63,44.56 49.7,98.46 85.76,157.19 16.37,26.66 33.24,54.14 49.66,82.47 44.1,25.51 158.48,79.13 284.44,134.25 18.14,-11 38.3,-18.26 60.05,-20.99l5.82 -0.49c51.85,-4.43 100.13,18.15 136.85,58.87 16.27,18.03 30.29,39.89 41.15,64.52 88.76,34.98 162.13,60.75 193.89,65.45 96.89,14.33 -10.48,309.99 -44.35,372.41 -22.7,41.84 -73.29,83.6 -74.23,88.13 -79.84,27.65 -361.58,193.9 -426.96,273.89 -212.51,260.01 -124.17,425.7 -233.24,586.73 -78.88,116.44 -49.1,246.4 -319.34,301.35 -196.2,39.88 -215.74,-43.09 -371.86,71.99 -12.11,8.93 -21.54,20.67 -29.11,34.3 48.88,212.77 15.48,399.03 -58.5,526.5 -51.83,89.32 -124.43,151.62 -204.84,177.3 -84.7,27.05 -175.65,13.96 -258.94,-49.57 -120.42,-91.85 -224.72,-297.21 -259.1,-652.46z"/>
     <path class="fil6" d="M9228.13 10318.46c-16.25,-30.48 -4.72,-68.38 25.76,-84.64 30.48,-16.26 68.38,-4.72 84.63,25.76 49.73,93.45 71.45,204.13 62.24,318.52 -5.05,62.68 -19.39,126.69 -43.51,189.78 97.18,-37.39 172.78,-93.63 202.36,-196.56 48.72,-169.43 -50.05,-330.32 -133.61,-466.43 -59.72,-97.28 -113.02,-184.11 -115.46,-268.5 -58.17,-16.21 -117.22,-27.93 -177.46,-33.5 -52.11,-4.82 -100.37,-11.84 -144.92,-20.75 -0.46,89.91 134.68,365.61 134.68,613.89 0,171.5 -108.68,310.56 -269.89,329.21l-0.02 0.01c15.07,48.62 28,100.3 38.57,155.14l1.43 7.5c76.59,-25.32 156.02,-42.31 233.73,-58.92 23.71,-5.07 47.24,-10.09 70.37,-15.32 46.39,-79.71 72.06,-163.95 78.62,-245.35 7.34,-91.09 -9.25,-177.91 -47.53,-249.83z"/>
     <path class="fil6" d="M6578.37 9396.86c9.94,22.59 25.99,43.37 47.13,61.98 31.2,27.47 72.98,50.05 122.62,66.92 127.73,43.41 302.43,48.38 484.13,3.32 164.68,-40.85 280.82,-102.69 356.39,-174.28 -95.06,37.87 -201.6,42.96 -283.43,46.86 -42.89,2.04 -76.55,3.65 -80.48,6.07 -39.78,24.59 -89.06,44.62 -143.08,58.63 -97.57,25.3 -213.31,31.64 -318.2,10.03 -68.14,-14.04 -132.17,-39.77 -185.09,-79.54z"/>
    </g>
    <g id="white">
     <path class="fil7" d="M7646.72 10393.46c127.98,54.66 218.61,152.46 268.54,218l70.24 -69.76c-49.2,-61.15 -156.16,-173.7 -299.66,-208.87 -13.19,19.78 -26.41,40.37 -39.11,60.63z"/>
     <path class="fil7" d="M9398.92 5521.44c88.32,45.3 237.43,121.8 304.99,261.45 6.28,-2.42 12.65,-6.04 18.49,-10.65 11.59,-9.18 20.41,-21.93 19.09,-35.42 -3.87,-39.58 -60.92,-124.28 -133.77,-195.35 -54.95,-53.59 -115.98,-95.8 -163.63,-97.16 -30.7,-0.87 -51.85,6.8 -65.12,18.19 -7.51,6.44 -12.58,14.3 -15.39,22.27 -2.22,6.32 -2.97,12.09 -2.36,16.63 9.48,5.55 22.52,12.24 37.69,20.03z"/>
     <path class="fil7" d="M10651.52 6104.04c-32.22,-13.94 -77.29,-19.19 -137.19,-9.86 -48.56,7.56 -97.91,29.97 -139.89,60.69 -34.2,25.03 -62.67,54.92 -80.92,86.09 -15.64,26.71 -23.42,53.65 -19.7,77.55 1.75,11.26 6.4,22.52 14.39,33.45 2.67,3.65 5.51,6.68 8.46,9.11 73.64,60.51 303.08,-48.97 362.79,-92.65 16.57,-12.12 29.23,-23.19 36.69,-32.28 9.2,-11.19 14.61,-25.82 15.74,-41.48 1.23,-16.99 -2.48,-34.57 -11.64,-49.97 -9.65,-16.2 -25.66,-30.67 -48.75,-40.65z"/>
     <path class="fil7" d="M10258.53 6483.17c-14.82,-6.67 -28.69,-15.08 -41.31,-25.47 -11.33,-9.31 -21.41,-19.83 -30.06,-31.65 -20.2,-27.61 -32.14,-57.44 -36.94,-88.4 -8.44,-54.17 5.69,-109.26 35.38,-159.97 27.09,-46.25 67.42,-89.2 114.78,-123.87 19.62,-14.36 40.59,-27.41 62.51,-38.8 -11.04,-28.87 -34.35,-81.76 -77.11,-146.96 -28.36,1.94 -53.52,6.53 -75.58,13.35 -40.08,12.43 -68.9,32.37 -87.26,56.91 -17.75,23.72 -26.34,52.54 -26.35,83.44 0,19.38 3.32,39.94 9.84,61.01 10.15,33.05 -8.41,68.09 -41.45,78.25 -20.77,6.37 -42.29,1.43 -57.95,-11.32 -51.41,-37.65 -114.74,-51.12 -174.98,-43.44 -61.78,7.88 -119.78,37.99 -157.64,86.99 -7.57,9.78 -15.59,19.05 -23.97,27.78 -76.86,80.04 -194.59,126.81 -305.5,143.22 -93.37,13.8 -185.13,5.67 -247.82,-22.47 -47.67,30.57 -117.68,44.64 -186.06,41.84 -36.11,-1.46 -72.67,-7.46 -105.73,-18.02 -36.2,-11.53 -68.72,-28.65 -93.26,-51.48 -2.11,-1.96 -4.15,-3.94 -6.14,-5.98 -57.61,-1.98 -72.67,29.8 -84.39,54.52 -15.66,33.01 -29.04,61.25 -67.69,76.3 -17.64,6.87 -38.92,9.62 -65.71,13.07 -68.15,8.79 -185.54,23.94 -260.49,133.5 -70.45,102.96 -60.7,172.55 -53.93,220.88 4.05,28.89 7.42,52.89 1.12,79.7 -7.96,33.85 -31.16,57.17 -59.78,85.95 -41.67,41.91 -102.17,102.73 -79.28,210.04 23.97,112.37 94.12,138.47 141.74,156.18 29.34,10.9 53.64,19.95 73.42,39.95l0.24 0.26c13.49,13.63 23.56,29.69 35.65,49.05 30.19,48.26 78.43,125.37 209.57,153.9 105.1,22.87 184.91,-14.39 256.02,-47.59 54.59,-25.48 105.14,-49.08 164.15,-52.57 53.28,-3.16 106.99,9.86 166.12,24.19 90.85,22 197.09,47.75 311.94,4.72l0.13 -0.06 0.37 -0.46c59.53,-75.65 126.04,-152.96 197.86,-228.38 171.53,-353.11 398.95,-606.24 635.81,-777.14 9.89,-7.13 19.81,-14.12 29.73,-20.98zm-1462.72 382.69c-30.08,-17.07 -40.62,-55.29 -23.56,-85.37 17.07,-30.07 55.29,-40.61 85.37,-23.54 31.36,17.86 87.86,23.54 148.54,19.94 67.85,-4.01 137.06,-19.93 181.73,-43.89 30.48,-16.39 68.48,-4.95 84.86,25.51 16.4,30.48 4.96,68.49 -25.5,84.89 -60.37,32.37 -149.19,53.57 -233.74,58.6 -82.48,4.89 -164.23,-5.67 -217.71,-36.13zm-155.81 -278.39c-25.06,-23.84 -26.04,-63.48 -2.2,-88.54 23.84,-25.06 63.5,-26.04 88.56,-2.2 33.92,32.4 88.59,21.9 137.28,12.54 25.16,-4.85 49.23,-9.48 74.69,-10.37l0.86 -0.02c19.63,-0.6 43.4,3.19 74,8.05 132.2,21.01 418.67,66.56 700.07,-232.49 98.75,-104.95 183.44,95.23 183.68,95.81 13.4,31.82 -1.53,68.52 -33.35,81.92 -31.84,13.42 -68.53,-1.53 -81.94,-33.36 -0.03,-0.03 -4.76,-10.7 -7.85,-17.67 -4.48,-10.12 -4,-5.3 -13.98,4.18 -311.87,297.46 -620.33,248.44 -766.27,225.23 -23.75,-3.76 -42.29,-6.71 -50.56,-6.57l-0.25 0.01c-14.49,0.5 -34.57,4.36 -55.57,8.41 -78.48,15.09 -166.61,32.04 -247.17,-44.93z"/>
     <path class="fil7" d="M8797.93 5916.86c-34.21,17.26 -67.97,38.09 -97.95,61.9 -40.76,32.36 -73.83,69.52 -89.64,109.23 -12.83,32.24 -14.02,67.94 2.5,106.18 14.7,-5.51 31.55,-9.43 51.03,-11.22 13.7,-120.65 128.01,-177.77 191.49,-200.41 7.33,-33.78 21.71,-85.65 49.33,-148.02l-0.54 0.03c-29.47,1.8 -63.67,16.28 -75.81,48.46 -0.76,2.02 -1.62,3.98 -2.56,5.87l0 0.01 -0.69 1.33 -0.04 0.08c-2.61,4.93 -5.82,9.4 -9.5,13.35l-0.12 0.13 -0.3 0.32 -0.76 0.79 -0.07 0.06c-0.63,0.64 -1.27,1.26 -1.92,1.87l-0.22 0.21 -0.29 0.26 -0.86 0.78 -0.27 0.23 -0.91 0.77 -0.25 0.2 -0.96 0.78 -0.22 0.17 -1.03 0.79 -0.17 0.13 -1.09 0.8 -0.13 0.09 -1.17 0.8 -0.08 0.05 -1.24 0.82 -0.01 0.01 -1.28 0.8 -0.06 0.04 -1.24 0.72 -0.14 0.08 -0.06 0.04 -1.35 0.74 -1.09 0.57 -0.34 0.17z"/>
     <path class="fil7" d="M10063.08 5622.72c-4.25,-2.69 -8.15,-5.88 -11.61,-9.48 -80.41,-64.86 -179.94,-128.98 -302.75,-185.65 -59.27,-27.35 -115.42,-48.71 -168.44,-65.19 40.14,23.41 79.2,54.62 114.76,89.3 91.71,89.44 164.7,208.36 171.07,273.34 6.05,61.78 -24.85,112.59 -66.19,145.32 -18.21,14.41 -38.65,25.39 -58.74,32.14 -22.94,7.72 -46.37,10.42 -67.28,7.24 -34.8,-5.28 -62.84,-24.13 -76.98,-58.93 -44.81,-110.24 -177.7,-178.43 -254.89,-218.02 -21.43,-11 -39.31,-20.18 -52.04,-28.16 -27.19,-17.07 -44.59,-44.98 -51.19,-77.47 -5.32,-26.19 -3.39,-55.81 6.57,-84.09 9.59,-27.22 26.75,-53.93 52.18,-75.75 25.65,-22.02 59.48,-38.8 101.93,-45.29 -16.42,-2.16 -32.41,-3.82 -47.96,-5.05 -5.57,0.35 -11.11,-0.05 -16.49,-1.15 -113.8,-6.89 -203.26,9.73 -266.73,29.7 1.21,0.57 2.43,1.19 3.64,1.83 5.07,2.66 9.89,5.68 14.46,9 41.44,30.24 52.4,77.11 47.78,124.5 -3.51,36.07 -16.8,73.43 -30.25,99.09 -4.64,8.86 -9.57,16.87 -14.44,23.53 -21.25,29.14 -66.5,44.86 -121.52,63.98 -42.19,14.66 -92.25,32.06 -127.77,52.63 18.99,-6.06 38.24,-9.54 56.61,-10.66 21.79,-1.33 43.07,0.67 61.78,5.56 23.22,6.07 43.5,16.91 58.36,31.98 28.37,28.83 37.21,65.96 16.1,108.75 -48.23,97.72 -58.38,165.99 -60,179.53 -1.7,27.41 -21.41,51.45 -49.58,57.43 -0.38,0.08 -132.31,27.89 -135.69,110.39 -0.28,6.98 3.41,13.51 9.65,19.31 10.67,9.93 26.73,17.98 45.68,24.02 22.09,7.04 47.32,11.09 72.86,12.13 51.86,2.11 100.77,-6.76 119.3,-26.69 0.41,-0.44 0.81,-0.92 1.22,-1.42 0.99,-1.6 2.06,-3.17 3.21,-4.69 14.17,-24.09 21.84,-83.76 30.01,-147.44 17.17,-133.76 36.08,-280.94 154,-325.06 1.75,-0.74 3.55,-1.41 5.39,-2 71.43,-23.07 139.81,-19.17 202.69,10.48 59.5,28.05 112.17,78.98 155.7,151.6 17.74,29.67 8.08,68.11 -21.59,85.85 -29.67,17.74 -68.11,8.08 -85.85,-21.59 -30.38,-50.69 -64.77,-85.12 -101.72,-102.54 -33.47,-15.78 -70.89,-17.53 -110.94,-4.59l-0.33 0.1c-46.89,18.48 -60.68,125.86 -73.21,223.44 -6.58,51.24 -12.89,100.46 -25.07,142.2 38.78,11.64 96.21,13.08 158.04,3.94 86.92,-12.85 177.38,-47.63 233.37,-105.93 5.49,-5.72 10.56,-11.56 15.13,-17.48 58.79,-76.07 147.4,-122.63 241.05,-134.58 51.8,-6.61 105.32,-2.64 156.36,12.76 4.39,-47.97 20.73,-92.96 49.65,-131.63 33.65,-45 83.72,-80.71 151.04,-101.56 8.35,-2.59 16.99,-4.94 25.9,-7.05 -37.4,-42.74 -82.36,-87.44 -136.22,-131.94z"/>
     <path class="fil7" d="M8822.14 5589.2c35.01,-15.77 71.74,-28.54 104.61,-39.96 34.96,-12.15 59.62,-16.53 61.67,-19.33 1.22,-1.68 2.81,-4.34 4.63,-7.83 7.41,-14.13 14.69,-34.26 16.51,-52.99 0.45,-4.63 2.18,-7.61 3.05,-9.46 -17.67,0.55 -52.66,14.69 -89.2,34.03 -44.19,23.39 -84.22,52.42 -95.49,73.93l-0.08 -0.04c-1.87,6.85 -3.79,14.14 -5.69,21.65z"/>
     <path class="fil7" d="M11526 6320.02l-50.98 43.61c60.88,56.94 103.68,125.99 128.94,200.77 61.65,-47.86 121.43,-95.75 179.38,-143.64 -85.24,-34.97 -171.03,-68.56 -257.34,-100.74z"/>
     <path class="fil7" d="M11082.83 6168.51c-14.75,15.59 -30.92,30.49 -48.69,44.54 18.11,-0.17 35.85,0.15 53.18,1.01 140.18,6.88 252.8,47.38 338.56,109.19l32.75 -28.02c-124.72,-45.29 -250.03,-87.57 -375.81,-126.72z"/>
     <path class="fil7" d="M8501.31 6025.2c26.07,-55.33 69.48,-103.91 120.66,-144.56 30.97,-24.61 65.04,-46.52 99.81,-65.33 5.85,-10.89 12.59,-20.85 20.01,-29.93 -30.11,-0.72 -59.85,-1.28 -89.2,-1.68 -27.92,-0.38 -67.78,-0.57 -119.26,-0.57 -812.14,0 -1597.84,112.98 -2342.25,324.03 120.42,20.68 240.19,75.4 352.18,157.54 319.67,-78.36 643.84,-137.73 971,-177.68 326.1,-39.83 655.61,-60.56 987.06,-61.81z"/>
     <path class="fil7" d="M4046.16 7511.61c40.55,-77.08 88.92,-151.34 145.15,-221.4 114.99,-143.29 262.88,-269.03 443.6,-365.42 162.65,-86.74 282.3,-213.23 401.61,-339.35 32.33,-34.17 64.64,-68.32 97.74,-101.79 -456.78,197.55 -892.85,433.63 -1304.08,704.15l215.98 323.8z"/>
     <path class="fil7" d="M11739.21 8995.72c7.06,227.79 -32.95,392.18 -273.3,576.61 -66.33,50.9 -114.04,103.78 -152.12,156.45 9.82,47.72 29.24,153.35 38.82,283.44l1883.87 -2824.43c-182.87,-120.28 -371.15,-234.03 -564.46,-340.85 -198.54,-109.72 -401.22,-211.52 -607.61,-304.99 -63.68,59.03 -129.8,118.06 -198.41,177.05 152.02,66.47 302.35,137.66 450.78,213.5 176.87,90.38 351.04,187.43 522.15,291.03 1.75,0.94 3.47,1.98 5.15,3.1 28.71,19.24 36.4,58.12 17.17,86.84l-260.47 390.52 -0.6 1.02c-1.23,2.04 -2.56,3.99 -3.97,5.83l-288.52 432.56 -0.59 0.89 -567.9 851.43z"/>
     <path class="fil7" d="M6390.52 10363.94l1337.87 2005.82c17.63,-14.04 35.46,-30.37 52.32,-49.18l2.65 -3.22c25.64,-29.17 49.09,-64.33 66.17,-106.22 1.38,-3.38 2.81,-6.76 4.27,-10.15 -222.52,-200.88 -386.62,-538.68 -549.93,-874.93 -246.64,-507.8 -491.51,-1011.67 -913.35,-962.12z"/>
     <path class="fil7" d="M9488.43 12370.26l-902.42 1352.96c-4.5,7.01 -10.48,13.24 -17.85,18.18 -28.71,19.23 -67.6,11.54 -86.83,-17.17l-820.28 -1229.82c-0.95,-1.32 -1.85,-2.67 -2.71,-4.07l-2098.23 -3145.81c-94.81,9.88 -190.17,13.2 -284.63,10.15l3257.86 4884.41 1426 -2137.96c-74.35,8.35 -153.03,15.54 -236.35,22.08 -52.81,145.54 -134.37,204.03 -234.55,247.05z"/>
     <path class="fil7" d="M8335.61 7920.7c10.97,-34.65 8.96,-73.39 -8.54,-108.22l-0.87 -1.69 -0.95 -1.81c-18.3,-34.09 -48.69,-57.87 -83.21,-68.81 -34.07,-10.79 -72.1,-9.02 -106.48,7.67 -2.16,1.29 -4.4,2.45 -6.72,3.48 -33.3,18.38 -56.57,48.39 -67.34,82.41 -10.8,34.07 -9.03,72.09 7.67,106.47 1.29,2.16 2.46,4.4 3.48,6.72 18.39,33.31 48.39,56.57 82.41,67.34 35.21,11.15 74.65,8.91 109.92,-9.39 35.06,-18.19 59.49,-49.03 70.62,-84.17z"/>
     <path class="fil7" d="M7767.77 8104.89c-1.29,-2.17 -2.46,-4.42 -3.49,-6.74 -18.39,-33.3 -48.39,-56.55 -82.41,-67.32 -34.07,-10.8 -72.09,-9.03 -106.47,7.67 -2.15,1.29 -4.4,2.45 -6.72,3.48 -33.3,18.38 -56.57,48.38 -67.34,82.42 -11.14,35.18 -8.9,74.54 9.33,109.78l0.07 0.14c18.19,35.06 49.03,59.48 84.16,70.61 34.06,10.78 72.08,9.03 106.44,-7.66 2.17,-1.3 4.42,-2.46 6.75,-3.5 33.3,-18.38 56.57,-48.39 67.34,-82.41 10.8,-34.07 9.03,-72.09 -7.67,-106.47z"/>
     <path class="fil7" d="M7231.35 8939.05c-10.75,-31.05 -14.69,-64.17 -10.39,-97.34 4.35,-33.77 17.12,-67.03 39.69,-97.6 1.03,-1.61 2.14,-3.18 3.33,-4.72 42.4,-54.46 102.44,-80.57 168.25,-83.78 38.71,-1.89 79.33,4.52 118.95,17.91 -6.81,-62.7 -23.7,-130.37 -49.07,-185.65 -24.54,-53.46 -54.27,-92.65 -84.33,-93.1l-2.27 0.07c-62.91,2.61 -81.83,44.51 -85.28,53.89 -2.93,11.46 -9.12,22.24 -18.53,30.8 -25.6,23.3 -65.25,21.43 -88.54,-4.17 -0.11,-0.12 -37.08,-41.94 -92.44,-25.91 -54.34,15.74 -60.94,64.18 -60.96,64.31 -1.77,11.94 -6.96,23.52 -15.7,33.11 -23.29,25.6 -62.94,27.46 -88.54,4.17 -0.12,-0.1 -39.49,-36.49 -84.9,-29.84 -61.87,100.84 -135.44,200.39 -221.81,297.63 -25.77,29 -52.63,56.76 -80.47,83.31 12.63,38.63 34.52,73.32 60.67,101.09 34.2,36.33 73.78,59.49 106.79,62.18 52.11,4.24 80.94,-38.57 87.22,-49.13 2.62,-5.46 6.08,-10.62 10.39,-15.31 23.43,-25.46 63.08,-27.11 88.54,-3.68 0.15,0.14 53.68,50.33 96.79,33.26 42.48,-16.83 53.49,-66.95 55.13,-75.81 1.74,-12.81 7.44,-25.21 17.15,-35.19 24.11,-24.79 63.76,-25.34 88.54,-1.23 0.07,0.07 16.49,16.7 41.8,20.73z"/>
     <path class="fil7" d="M6747.39 9191.13c-39.54,11.1 -92.15,26.88 -149.54,44.28l1.96 3.24c38.56,62.39 108.96,98.71 188.65,115.12 85.85,17.68 181.12,12.35 261.79,-8.56 42.23,-10.95 79.72,-25.98 108.74,-43.91 31.6,-19.53 79.41,-21.81 140.32,-24.71 132.56,-6.32 348.35,-16.61 388.13,-221.61 1.5,-7.74 2.52,-15.41 3.09,-23l0.02 -0.33c3.93,-53.85 -14.92,-103.39 -46,-143.79 -26.35,-34.24 -61.21,-62.13 -98.71,-81.05 -36.14,-18.22 -73.92,-27.76 -107.74,-26.12 -30.17,1.47 -57.06,12.61 -75.04,35.71l-2.52 3.04c-8.86,12.3 -13.84,25.21 -15.49,37.97 -2.16,16.7 1.14,34.12 8.72,50.53 8.24,17.81 21.33,34.13 37.96,47.09 18.92,14.72 42.27,25.08 68.21,28.43 34.27,4.33 58.54,35.63 54.2,69.9 -4.33,34.27 -35.63,58.54 -69.9,54.2 -49.31,-6.37 -93.65,-26 -129.53,-53.94l-1.93 -1.51c-52.26,20.58 -98.76,15.06 -134.69,2.18 -19.71,35.05 -51.79,72.61 -103.27,93.01 -65.95,26.11 -129.7,4.63 -172.9,-19.2 -32.39,31.81 -83.54,65.13 -154.56,63.03z"/>
     <path class="fil7" d="M8511.56 8470.35c0.77,1.18 1.5,2.38 2.2,3.62 26.61,43.42 62.37,85.67 103.9,125.11 100.84,95.8 234.07,173.22 356.76,213.12 46.87,15.23 91.63,24.8 131.65,27.52 3.46,0.02 6.87,0.32 10.19,0.9 56.43,7.54 127.69,65.7 209.92,146.54l122.93 -105.72c26.28,-22.48 65.81,-19.41 88.3,6.87 22.48,26.28 19.41,65.81 -6.87,88.3l-116.46 100.16c10.74,11.19 21.62,22.57 32.63,34.11l126.76 -101.89c26.95,-21.67 66.38,-17.39 88.06,9.57 21.67,26.95 17.38,66.38 -9.57,88.05l-118.09 94.93c19.34,19.87 38.92,39.72 58.61,59.28 7.66,-4.78 15.28,-9.61 22.85,-14.5 88.42,-57.13 169.82,-121.65 235.57,-188.1 63.26,-63.94 111.44,-129.04 136.26,-189.89 27.42,-67.25 23.35,-128.96 -27.48,-174.7 -127.94,-115.14 -205.28,-148.33 -248.02,-166.67 -82.45,-35.37 -101.83,-43.69 -79.52,-143.44 3.57,-15.97 7.84,-32.61 12.15,-49.39 18.71,-72.94 38.41,-149.78 -17.65,-195.45 -30.09,14.44 -60.42,28.84 -90.92,43.2 4.47,23.83 7.83,47.92 9.94,72.16 2.98,34.54 -22.61,64.96 -57.15,67.94 -34.54,2.98 -64.96,-22.61 -67.94,-57.15 -2.9,-33.39 -8.16,-64.94 -15.33,-94.49 -25.77,-106.07 -76.43,-196.19 -132.14,-258.69 -15.7,-17.61 -31.33,-32.76 -46.37,-45.13 -3.88,-2.43 -7.4,-5.22 -10.56,-8.3 -27.32,-20.46 -52.14,-30.99 -71.07,-29.35l-3.09 0.3c-68.3,16.59 -72.41,73.85 -72.42,74 -2.85,34.54 -33.15,60.24 -67.69,57.4 -13.54,-1.11 -25.72,-6.45 -35.35,-14.61 -10.8,-7.15 -49.6,-29.01 -92.51,-6.36 -50.25,26.52 -46.72,78.61 -46.71,78.76 1.49,34.54 -25.3,63.76 -59.84,65.24 -12.98,0.56 -25.2,-2.87 -35.49,-9.21l-0.08 0.14c-0.15,-0.09 -52.81,-33.3 -97.45,-10.07 -40.38,21.02 -35.73,94.93 -35.72,95.13 1.9,34.54 -24.57,64.08 -59.11,65.98l-3.44 0.09 0 0.15c-0.15,0 -54.56,-0.15 -62.69,24.85 -5.67,17.46 -8.92,34.98 -9.96,52.46 -3.28,55.4 14.99,112.22 48.01,167.22z"/>
    </g>
   </g>
  </g>
 </g>
</svg>
