<svg width="1049" height="76" viewBox="0 0 1049 76" fill="none" xmlns="http://www.w3.org/2000/svg">
<path d="M41.32 6.72C49.32 6.72 55.3467 8.26667 59.4 11.36C63.4533 14.4 65.48 18.88 65.48 24.8C65.48 27.7333 64.9467 31.12 63.88 34.96C62.12 41.1467 59.7467 46.0533 56.76 49.68C53.7733 53.3067 49.8267 55.9467 44.92 57.6C40.0667 59.2533 33.8267 60.0533 26.2 60L4.44 59.92C3.32 59.92 2.46667 59.7333 1.88 59.36C1.24 58.9867 0.92 58.48 0.92 57.84C0.92 57.52 1 57.1733 1.16 56.8C1.32 56.32 1.56 55.9733 1.88 55.76C2.14667 55.5467 2.57333 55.2533 3.16 54.88C4.01333 54.4 4.68 53.8667 5.16 53.28C5.69333 52.6933 6.14667 51.76 6.52 50.48L16.28 16.08C16.4933 15.3867 16.6 14.72 16.6 14.08C16.6 13.4933 16.4933 13.0133 16.28 12.64C16.12 12.2133 15.88 11.7333 15.56 11.2C15.08 10.5067 14.84 9.94666 14.84 9.52C14.84 9.36 14.8933 9.06667 15 8.64C15.2133 7.94666 15.6667 7.46666 16.36 7.2C17.1067 6.88 18.2267 6.72 19.72 6.72H41.32ZM43.4 33.2C44.7867 28.1867 45.48 24.24 45.48 21.36C45.48 18.5333 44.8933 16.5867 43.72 15.52C42.5467 14.4533 40.8667 13.92 38.68 13.92H36.92L26.12 52.8H28.04C30.4933 52.8 32.5467 52.2933 34.2 51.28C35.9067 50.2133 37.48 48.2933 38.92 45.52C40.36 42.6933 41.8533 38.5867 43.4 33.2ZM91.9169 17.28C98.6902 17.28 103.597 18.3733 106.637 20.56C109.677 22.6933 111.197 25.44 111.197 28.8C111.197 29.8133 111.09 30.7467 110.877 31.6C110.077 35.12 107.837 37.6533 104.157 39.2C100.53 40.6933 96.2369 41.44 91.2769 41.44C88.7702 41.44 86.4235 41.28 84.2369 40.96C84.1835 43.7333 84.9302 45.68 86.4769 46.8C88.0235 47.92 90.1835 48.48 92.9569 48.48C94.2369 48.48 95.4635 48.3467 96.6369 48.08C97.8102 47.76 99.3035 47.3067 101.117 46.72C102.61 46.1867 103.624 45.92 104.157 45.92C104.744 45.92 105.037 46.2667 105.037 46.96C105.09 48.8267 104.397 50.8 102.957 52.88C101.517 54.9067 99.3835 56.64 96.5569 58.08C93.7302 59.52 90.3169 60.24 86.3169 60.24C80.3969 60.24 75.5435 58.7467 71.7569 55.76C67.9702 52.7733 66.0769 48.4267 66.0769 42.72C66.0769 41.12 66.2902 39.2533 66.7169 37.12C68.0502 30.56 70.9569 25.6267 75.4369 22.32C79.9702 18.96 85.4635 17.28 91.9169 17.28ZM84.7969 36.16C85.0102 36.2133 85.3035 36.24 85.6769 36.24C87.9169 36.24 89.6235 35.2 90.7969 33.12C91.9702 31.04 92.5302 28.72 92.4769 26.16C92.4235 24.6667 91.9969 23.92 91.1969 23.92C90.6102 23.92 89.9169 24.4 89.1169 25.36C88.3169 26.2667 87.5169 27.6533 86.7169 29.52C85.9702 31.3867 85.3302 33.6 84.7969 36.16ZM195.498 6.72C196.618 6.72 197.471 6.90667 198.058 7.28C198.698 7.65333 199.018 8.13333 199.018 8.72C199.018 8.98666 198.938 9.33333 198.778 9.76C198.618 10.1333 198.378 10.48 198.058 10.8C197.791 11.0667 197.525 11.28 197.258 11.44C197.045 11.5467 196.885 11.6533 196.778 11.76C195.925 12.24 195.231 12.7733 194.698 13.36C194.165 13.9467 193.711 14.8533 193.338 16.08L183.498 50.56C183.285 51.2533 183.178 51.92 183.178 52.56C183.178 53.2 183.258 53.7067 183.418 54.08C183.631 54.4533 183.925 54.9333 184.298 55.52C184.351 55.5733 184.485 55.7867 184.698 56.16C184.965 56.48 185.098 56.8267 185.098 57.2C185.098 57.3067 185.045 57.5733 184.938 58C184.671 58.7467 184.165 59.28 183.418 59.6C182.671 59.8667 181.551 60 180.058 60H161.258C160.138 60 159.258 59.8133 158.618 59.44C158.031 59.0667 157.738 58.56 157.738 57.92C157.738 57.6 157.818 57.2533 157.978 56.88C158.191 56.4533 158.485 56.1067 158.858 55.84C159.231 55.52 159.605 55.2533 159.978 55.04C160.831 54.56 161.525 54.0267 162.058 53.44C162.591 52.8 163.045 51.84 163.418 50.56L167.258 37.2H153.098L149.258 50.56C149.045 51.2533 148.938 51.92 148.938 52.56C148.938 53.2 149.018 53.7067 149.178 54.08C149.391 54.4533 149.685 54.9333 150.058 55.52C150.111 55.5733 150.245 55.7867 150.458 56.16C150.725 56.48 150.858 56.8267 150.858 57.2C150.858 57.3067 150.805 57.5733 150.698 58C150.431 58.7467 149.925 59.28 149.178 59.6C148.431 59.8667 147.311 60 145.818 60H127.018C125.898 60 125.045 59.8133 124.458 59.44C123.818 59.0667 123.498 58.56 123.498 57.92C123.498 57.6 123.578 57.2533 123.738 56.88C123.951 56.4533 124.245 56.1067 124.618 55.84C124.991 55.52 125.365 55.2533 125.738 55.04C126.591 54.56 127.285 54.0267 127.818 53.44C128.351 52.8 128.805 51.84 129.178 50.56L139.018 16.08C139.231 15.3867 139.338 14.72 139.338 14.08C139.338 13.4933 139.231 13.0133 139.018 12.64C138.858 12.2133 138.618 11.7333 138.298 11.2C138.085 10.9333 137.898 10.6667 137.738 10.4C137.578 10.08 137.498 9.76 137.498 9.44C137.498 9.33333 137.551 9.06667 137.658 8.64C137.871 7.94666 138.351 7.46666 139.098 7.2C139.845 6.88 140.965 6.72 142.458 6.72H161.258C162.378 6.72 163.231 6.90667 163.818 7.28C164.458 7.65333 164.778 8.13333 164.778 8.72C164.778 8.98666 164.698 9.33333 164.538 9.76C164.378 10.1333 164.138 10.48 163.818 10.8C163.551 11.0667 163.285 11.28 163.018 11.44C162.805 11.5467 162.645 11.6533 162.538 11.76C161.685 12.24 160.991 12.7733 160.458 13.36C159.925 13.9467 159.471 14.8533 159.098 16.08L155.338 29.2H169.498L173.258 16.08C173.471 15.3867 173.578 14.72 173.578 14.08C173.578 13.4933 173.471 13.0133 173.258 12.64C173.098 12.2133 172.858 11.7333 172.538 11.2C172.325 10.9333 172.138 10.6667 171.978 10.4C171.818 10.08 171.738 9.76 171.738 9.44C171.738 9.33333 171.791 9.06667 171.898 8.64C172.111 7.94666 172.591 7.46666 173.338 7.2C174.085 6.88 175.205 6.72 176.698 6.72H195.498ZM220.857 17.68C226.99 17.68 231.897 18.8267 235.577 21.12C239.257 23.36 241.097 26.8 241.097 31.44C241.097 33.2 240.777 35.2 240.137 37.44L236.857 48.48C236.804 48.6933 236.777 48.96 236.777 49.28C236.777 50.1333 237.124 50.56 237.817 50.56C238.457 50.56 238.99 50.2933 239.417 49.76C239.897 49.1733 240.217 48.88 240.377 48.88C240.644 48.88 240.857 49.0667 241.017 49.44C241.23 49.8133 241.337 50.24 241.337 50.72C241.39 52.16 240.83 53.6267 239.657 55.12C238.537 56.6133 237.017 57.84 235.097 58.8C233.177 59.76 231.07 60.24 228.777 60.24C226.004 60.24 223.63 59.7333 221.657 58.72C219.684 57.7067 218.324 56.2133 217.577 54.24C215.977 56.16 214.084 57.6533 211.897 58.72C209.71 59.7333 207.364 60.24 204.857 60.24C202.03 60.24 199.657 59.7067 197.737 58.64C195.817 57.52 194.377 56.1067 193.417 54.4C192.51 52.64 192.057 50.8 192.057 48.88C192.057 48.0267 192.137 47.2 192.297 46.4C193.15 42.72 194.99 39.9467 197.817 38.08C200.697 36.2133 204.11 35.28 208.057 35.28C212.484 35.28 216.83 35.9733 221.097 37.36L223.097 32.08C223.79 29.84 224.137 28.1067 224.137 26.88C224.084 25.6 223.657 24.64 222.857 24C222.057 23.36 220.83 23.04 219.177 23.04C219.497 23.8933 219.657 24.7733 219.657 25.68C219.657 27.6533 218.91 29.36 217.417 30.8C215.924 32.24 213.79 32.96 211.017 32.96C208.404 32.96 206.35 32.4 204.857 31.28C203.417 30.1067 202.697 28.6667 202.697 26.96C202.697 24.2933 204.19 22.08 207.177 20.32C210.164 18.56 214.724 17.68 220.857 17.68ZM216.377 41.92C214.884 41.92 213.657 42.5067 212.697 43.68C211.79 44.8 211.337 46.0267 211.337 47.36C211.337 48.2133 211.524 48.9067 211.897 49.44C212.324 49.9733 212.91 50.24 213.657 50.24C214.35 50.24 215.097 49.9733 215.897 49.44C216.75 48.8533 217.364 48 217.737 46.88L219.417 42.16C218.51 42 217.497 41.92 216.377 41.92ZM283.921 17.68C286.907 17.68 289.281 18.5867 291.041 20.4C292.854 22.2133 293.761 24.4533 293.761 27.12C293.761 28.1333 293.654 29.0667 293.441 29.92C292.907 32.1067 291.894 33.7867 290.401 34.96C288.907 36.1333 287.121 36.72 285.041 36.72C283.014 36.72 281.467 36.24 280.401 35.28C279.387 34.32 278.481 33.04 277.681 31.44C277.254 30.5333 276.854 29.8667 276.481 29.44C276.107 29.0133 275.681 28.8 275.201 28.8C274.667 28.8 274.187 29.0133 273.761 29.44C273.387 29.8667 273.041 30.6133 272.721 31.68L266.561 51.68C266.454 51.9467 266.401 52.3467 266.401 52.88C266.401 53.5733 266.587 54.16 266.961 54.64C267.387 55.0667 267.947 55.4933 268.641 55.92C269.281 56.3467 269.707 56.6933 269.921 56.96C270.134 57.2267 270.214 57.5733 270.161 58C270.054 58.6933 269.654 59.2 268.961 59.52C268.321 59.84 267.201 60 265.601 60H245.121C243.734 60 242.747 59.7867 242.161 59.36C241.521 58.88 241.281 58.2667 241.441 57.52C241.654 56.88 242.214 56.32 243.121 55.84C243.921 55.4133 244.587 54.9067 245.121 54.32C245.654 53.7333 246.107 52.8 246.481 51.52L253.601 28.4C253.707 28.1333 253.761 27.76 253.761 27.28C253.761 26.6933 253.627 26.24 253.361 25.92C253.147 25.6 252.774 25.2 252.241 24.72C251.707 24.2933 251.334 23.92 251.121 23.6C250.907 23.28 250.881 22.8533 251.041 22.32C251.361 21.0933 253.041 20.0267 256.081 19.12C259.121 18.16 262.294 17.68 265.601 17.68C267.787 17.68 269.601 18.1867 271.041 19.2C272.481 20.16 273.414 21.5467 273.841 23.36C276.401 19.5733 279.761 17.68 283.921 17.68ZM326.729 18.72C327.742 18.72 328.515 18.9333 329.049 19.36C329.635 19.7867 329.929 20.3733 329.929 21.12C329.929 21.3333 329.875 21.7067 329.769 22.24C329.075 24.5867 327.475 25.76 324.969 25.76H320.329L314.329 45.52C314.062 46.32 313.929 47.1467 313.929 48C313.929 48.96 314.195 49.6267 314.729 50C315.262 50.3733 316.009 50.56 316.969 50.56C317.822 50.56 318.889 50.4533 320.169 50.24C320.809 50.08 321.369 50 321.849 50C322.222 50 322.489 50.1333 322.649 50.4C322.862 50.6133 322.969 50.9067 322.969 51.28C323.022 52.3467 322.222 53.6533 320.569 55.2C318.969 56.6933 316.782 58 314.009 59.12C311.235 60.1867 308.169 60.72 304.809 60.72C301.182 60.72 298.275 59.8933 296.089 58.24C293.902 56.5867 292.809 54.32 292.809 51.44C292.809 50.1067 293.022 48.8267 293.449 47.6L298.569 31.76C298.835 30.8533 298.969 30.1333 298.969 29.6C298.969 28.5333 298.702 27.6267 298.169 26.88C297.689 26.1333 296.995 25.36 296.089 24.56C295.289 23.8133 294.729 23.2 294.409 22.72C294.089 22.1867 294.009 21.5733 294.169 20.88C294.382 20.1867 294.835 19.6533 295.529 19.28C296.222 18.9067 297.315 18.72 298.809 18.72H303.289L308.329 13.68C310.089 11.92 311.689 10.6933 313.129 10C314.622 9.30667 316.542 8.96 318.889 8.96C322.249 8.96 323.929 10.24 323.929 12.8C323.929 13.6 323.822 14.3467 323.609 15.04L322.489 18.72H326.729ZM338.064 6.88C338.33 5.12 338.837 3.89333 339.584 3.2C340.33 2.45333 341.53 2.08 343.184 2.08H349.024C350.144 2.08 351.024 2.34666 351.664 2.88C352.357 3.41333 352.704 4.08 352.704 4.88C352.704 5.62667 352.384 6.53333 351.744 7.6L345.504 18.24C344.917 19.2 344.304 19.8667 343.664 20.24C343.024 20.56 342.224 20.72 341.264 20.72H338.464C337.664 20.72 337.05 20.5067 336.624 20.08C336.197 19.6 336.064 18.96 336.224 18.16L338.064 6.88ZM372.367 16.96C376.794 16.96 380.607 17.36 383.807 18.16C387.06 18.96 389.54 20.08 391.247 21.52C393.007 22.96 393.887 24.5867 393.887 26.4C393.887 28.2667 393.14 29.7867 391.647 30.96C390.207 32.1333 388.18 32.72 385.567 32.72C382.9 32.72 380.634 32.0533 378.767 30.72C376.954 29.3867 376.047 27.7067 376.047 25.68C376.047 24.9867 376.154 24.32 376.367 23.68C375.407 23.4133 374.554 23.28 373.807 23.28C372.474 23.28 371.354 23.6 370.447 24.24C369.594 24.88 369.194 25.7867 369.247 26.96C369.247 28.3467 369.94 29.52 371.327 30.48C372.714 31.44 374.954 32.64 378.047 34.08C380.714 35.2533 382.9 36.3467 384.607 37.36C386.367 38.32 387.834 39.5467 389.007 41.04C390.234 42.5333 390.847 44.2933 390.847 46.32C390.847 46.7467 390.74 47.5467 390.527 48.72C389.674 52.2933 387.3 55.12 383.407 57.2C379.514 59.28 374.394 60.32 368.047 60.32C360.9 60.32 355.22 59.36 351.007 57.44C346.847 55.52 344.767 52.88 344.767 49.52C344.767 47.2267 345.46 45.4933 346.847 44.32C348.234 43.1467 350.074 42.56 352.367 42.56C355.034 42.56 357.3 43.3867 359.167 45.04C361.087 46.6933 362.047 48.8 362.047 51.36C362.047 52.0533 361.967 52.7733 361.807 53.52C363.087 53.84 364.314 54 365.487 54C366.874 54 368.02 53.6267 368.927 52.88C369.834 52.1333 370.287 51.0933 370.287 49.76C370.234 48.5333 369.62 47.4933 368.447 46.64C367.274 45.7333 365.407 44.6667 362.847 43.44C360.447 42.32 358.474 41.28 356.927 40.32C355.38 39.3067 354.047 38.0533 352.927 36.56C351.86 35.0667 351.327 33.3067 351.327 31.28C351.327 26.9067 353.14 23.44 356.767 20.88C360.447 18.2667 365.647 16.96 372.367 16.96ZM458.364 50.56C458.151 51.2533 458.044 51.9467 458.044 52.64C458.044 53.2267 458.124 53.7333 458.284 54.16C458.444 54.5333 458.604 54.8533 458.764 55.12C458.978 55.3333 459.111 55.4933 459.164 55.6C459.698 56.1333 459.964 56.6667 459.964 57.2C459.964 57.3067 459.911 57.5733 459.804 58C459.591 58.7467 459.111 59.28 458.364 59.6C457.671 59.8667 456.578 60 455.084 60H436.124C435.004 60 434.124 59.8133 433.484 59.44C432.898 59.0667 432.604 58.56 432.604 57.92C432.604 57.6 432.684 57.2533 432.844 56.88C433.004 56.4533 433.218 56.1333 433.484 55.92C433.804 55.6533 434.231 55.36 434.764 55.04C435.618 54.56 436.311 54.0267 436.844 53.44C437.378 52.8533 437.831 51.8933 438.204 50.56L440.284 43.68H427.804L425.644 48.24C424.738 50.2133 424.284 51.76 424.284 52.88C424.284 53.52 424.391 54.0533 424.604 54.48C424.818 54.8533 425.138 55.2533 425.564 55.68C425.938 56.1067 426.178 56.48 426.284 56.8C426.444 57.0667 426.471 57.44 426.364 57.92C426.151 58.72 425.698 59.28 425.004 59.6C424.364 59.8667 423.324 60 421.884 60H409.964C408.738 60 407.804 59.7867 407.164 59.36C406.524 58.88 406.204 58.2667 406.204 57.52C406.204 56.6667 406.524 56 407.164 55.52C407.751 54.9867 408.658 54.4267 409.884 53.84C411.484 53.04 412.764 52.2667 413.724 51.52C414.684 50.72 415.511 49.6267 416.204 48.24L430.444 18.72C432.631 14.1333 435.191 10.8267 438.124 8.8C441.111 6.72 445.031 5.68 449.884 5.68C455.324 5.68 459.538 6.8 462.524 9.04C465.511 11.2267 467.004 14.2933 467.004 18.24C467.004 19.8933 466.738 21.6 466.204 23.36L458.364 50.56ZM442.684 35.68L446.924 21.6C447.138 20.96 447.244 20.2933 447.244 19.6C447.244 18.5867 446.951 17.84 446.364 17.36C445.831 16.8267 445.058 16.56 444.044 16.56C442.764 16.56 441.671 16.9333 440.764 17.68C439.858 18.4267 438.951 19.76 438.044 21.68L431.484 35.68H442.684ZM512.864 48.96C512.757 49.3867 512.704 49.7067 512.704 49.92C512.704 50.2933 512.784 50.5867 512.944 50.8C513.157 51.0133 513.424 51.12 513.744 51.12C514.384 51.12 514.917 50.8533 515.344 50.32C515.824 49.7333 516.144 49.44 516.304 49.44C516.57 49.44 516.784 49.6267 516.944 50C517.157 50.32 517.264 50.72 517.264 51.2C517.317 52.6933 516.784 54.1867 515.664 55.68C514.544 57.12 512.97 58.32 510.944 59.28C508.917 60.24 506.65 60.72 504.144 60.72C500.997 60.72 498.49 60.08 496.624 58.8C494.757 57.52 493.557 55.84 493.024 53.76C491.104 55.8933 488.97 57.52 486.624 58.64C484.33 59.7067 481.984 60.24 479.584 60.24C475.85 60.24 472.704 59.3333 470.144 57.52C467.637 55.6533 466.384 53.0667 466.384 49.76C466.384 48.2667 466.65 46.72 467.184 45.12L472.304 28.4C472.464 27.92 472.544 27.52 472.544 27.2C472.544 26.6133 472.41 26.16 472.144 25.84C471.877 25.4667 471.477 25.0933 470.944 24.72C470.41 24.2933 470.037 23.92 469.824 23.6C469.61 23.28 469.584 22.8533 469.744 22.32C470.064 21.0933 471.744 20.0267 474.784 19.12C477.824 18.16 480.997 17.68 484.304 17.68C487.397 17.68 489.664 18.2667 491.104 19.44C492.544 20.6133 493.264 22.2133 493.264 24.24C493.264 25.4667 493.077 26.64 492.704 27.76L487.664 44.4C487.45 44.9867 487.344 45.5467 487.344 46.08C487.344 46.8267 487.557 47.3867 487.984 47.76C488.41 48.1333 488.97 48.32 489.664 48.32C490.677 48.32 491.504 48.0267 492.144 47.44C492.784 46.8533 493.424 45.8667 494.064 44.48L498.944 28.4C499.104 27.92 499.184 27.52 499.184 27.2C499.184 26.6133 499.05 26.16 498.784 25.84C498.517 25.4667 498.144 25.0933 497.664 24.72C497.13 24.2933 496.757 23.92 496.544 23.6C496.33 23.28 496.304 22.8533 496.464 22.32C496.73 21.0933 498.384 20.0267 501.424 19.12C504.464 18.16 507.637 17.68 510.944 17.68C514.037 17.68 516.304 18.2667 517.744 19.44C519.237 20.6133 519.984 22.1867 519.984 24.16C519.984 25.1733 519.77 26.3733 519.344 27.76L512.864 48.96ZM567.628 17.68C570.668 17.68 573.094 18.5333 574.908 20.24C576.774 21.8933 577.708 23.92 577.708 26.32C577.708 28.88 576.934 30.88 575.388 32.32C573.841 33.76 571.814 34.48 569.308 34.48C567.068 34.48 565.334 33.92 564.108 32.8C562.881 31.6267 562.294 30.32 562.348 28.88C561.814 28.7733 561.361 28.9867 560.988 29.52C560.614 30.0533 560.214 31.0933 559.788 32.64C559.521 33.6533 559.014 34.5867 558.268 35.44C561.894 35.7067 564.588 36.5333 566.348 37.92C568.108 39.3067 568.988 41.0933 568.988 43.28C568.988 44.3467 568.801 45.4133 568.428 46.48L567.788 48.96C567.681 49.2267 567.628 49.5733 567.628 50C567.628 50.7467 567.974 51.12 568.668 51.12C569.308 51.12 569.841 50.8533 570.268 50.32C570.748 49.7333 571.068 49.44 571.228 49.44C571.494 49.44 571.708 49.6267 571.868 50C572.028 50.32 572.108 50.72 572.108 51.2C572.161 52.7467 571.681 54.2667 570.668 55.76C569.708 57.2 568.214 58.4 566.188 59.36C564.214 60.2667 561.814 60.72 558.988 60.72C555.574 60.72 552.721 59.8667 550.428 58.16C548.188 56.4533 547.068 54.2133 547.068 51.44C547.068 50.4267 547.281 49.28 547.708 48L549.228 44C549.494 43.04 549.628 42.3467 549.628 41.92C549.628 41.2267 549.388 40.72 548.908 40.4C548.481 40.08 547.788 39.92 546.828 39.92H545.228L541.628 51.68C541.468 52.32 541.388 52.88 541.388 53.36C541.388 54.0533 541.521 54.6133 541.788 55.04C542.054 55.4133 542.428 55.7867 542.908 56.16C543.281 56.5333 543.548 56.8533 543.707 57.12C543.868 57.3333 543.894 57.6267 543.788 58C543.521 58.6933 542.988 59.2 542.188 59.52C541.388 59.84 540.161 60 538.508 60H520.268C518.881 60 517.867 59.7867 517.227 59.36C516.587 58.88 516.374 58.2667 516.587 57.52C516.801 56.88 517.361 56.32 518.267 55.84C519.067 55.4133 519.734 54.9067 520.268 54.32C520.801 53.7333 521.254 52.8 521.628 51.52L533.788 11.6C533.948 11.12 534.028 10.72 534.028 10.4C534.028 9.81333 533.868 9.33333 533.548 8.96C533.281 8.58666 532.908 8.21333 532.428 7.84C531.894 7.41333 531.494 7.04 531.228 6.72C531.014 6.4 530.988 5.97333 531.148 5.44C531.468 4.21333 533.148 3.14666 536.188 2.24C539.228 1.33333 542.401 0.879998 545.708 0.879998C548.801 0.879998 551.068 1.46667 552.508 2.64C553.948 3.76 554.668 5.33333 554.668 7.36C554.668 8.58666 554.481 9.76 554.108 10.88L547.148 33.6H549.788C550.854 33.6 551.708 33.28 552.348 32.64C553.041 32 553.574 31.0667 553.948 29.84C555.281 25.8933 557.014 22.88 559.148 20.8C561.281 18.72 564.108 17.68 567.628 17.68ZM603.245 17.28C610.018 17.28 614.925 18.3733 617.965 20.56C621.005 22.6933 622.525 25.44 622.525 28.8C622.525 29.8133 622.418 30.7467 622.205 31.6C621.405 35.12 619.165 37.6533 615.485 39.2C611.858 40.6933 607.565 41.44 602.605 41.44C600.098 41.44 597.752 41.28 595.565 40.96C595.512 43.7333 596.258 45.68 597.805 46.8C599.352 47.92 601.512 48.48 604.285 48.48C605.565 48.48 606.792 48.3467 607.965 48.08C609.138 47.76 610.632 47.3067 612.445 46.72C613.938 46.1867 614.952 45.92 615.485 45.92C616.072 45.92 616.365 46.2667 616.365 46.96C616.418 48.8267 615.725 50.8 614.285 52.88C612.845 54.9067 610.712 56.64 607.885 58.08C605.058 59.52 601.645 60.24 597.645 60.24C591.725 60.24 586.872 58.7467 583.085 55.76C579.298 52.7733 577.405 48.4267 577.405 42.72C577.405 41.12 577.618 39.2533 578.045 37.12C579.378 30.56 582.285 25.6267 586.765 22.32C591.298 18.96 596.792 17.28 603.245 17.28ZM596.125 36.16C596.338 36.2133 596.632 36.24 597.005 36.24C599.245 36.24 600.952 35.2 602.125 33.12C603.298 31.04 603.858 28.72 603.805 26.16C603.752 24.6667 603.325 23.92 602.525 23.92C601.938 23.92 601.245 24.4 600.445 25.36C599.645 26.2667 598.845 27.6533 598.045 29.52C597.298 31.3867 596.658 33.6 596.125 36.16ZM682.266 6.72C685.893 6.72 689.04 7.28 691.706 8.4C694.426 9.46667 696.48 10.96 697.866 12.88C699.306 14.7467 700.026 16.9067 700.026 19.36C700.026 20.7467 699.84 22.0267 699.466 23.2C697.92 28.5867 693.466 32 686.106 33.44C688.666 34.1867 690.693 35.44 692.186 37.2C693.68 38.9067 694.426 41.04 694.426 43.6C694.426 44.7733 694.213 46.16 693.786 47.76C692.613 51.92 690.24 55.0133 686.666 57.04C683.146 59.0133 678.133 60 671.626 60H638.346C637.226 60 636.373 59.8133 635.786 59.44C635.146 59.0667 634.826 58.56 634.826 57.92C634.826 57.6 634.906 57.2533 635.066 56.88C635.28 56.2933 635.626 55.84 636.106 55.52C636.586 55.2 636.88 55.0133 636.986 54.96C637.84 54.4267 638.533 53.8933 639.066 53.36C639.6 52.7733 640.053 51.84 640.426 50.56L650.186 16.08C650.4 15.3867 650.506 14.72 650.506 14.08C650.506 13.4933 650.4 13.0133 650.186 12.64C650.026 12.2133 649.786 11.7333 649.466 11.2C648.986 10.5067 648.746 9.94666 648.746 9.52C648.746 9.36 648.8 9.06667 648.906 8.64C649.12 7.94666 649.573 7.46666 650.266 7.2C651.013 6.88 652.133 6.72 653.626 6.72H682.266ZM678.666 21.36C679.04 20.1867 679.226 19.0933 679.226 18.08C679.226 15.3067 677.653 13.92 674.506 13.92H670.906L666.666 28.88H670.186C672.426 28.88 674.186 28.3467 675.466 27.28C676.8 26.16 677.866 24.1867 678.666 21.36ZM672.826 44.88C673.2 43.6 673.386 42.4267 673.386 41.36C673.386 38.48 671.733 37.04 668.426 37.04H664.426L659.866 52.8H663.946C666.24 52.8 668.08 52.24 669.466 51.12C670.853 49.9467 671.973 47.8667 672.826 44.88ZM726.326 17.68C732.459 17.68 737.366 18.8267 741.046 21.12C744.726 23.36 746.566 26.8 746.566 31.44C746.566 33.2 746.246 35.2 745.606 37.44L742.326 48.48C742.272 48.6933 742.246 48.96 742.246 49.28C742.246 50.1333 742.592 50.56 743.286 50.56C743.926 50.56 744.459 50.2933 744.886 49.76C745.366 49.1733 745.686 48.88 745.846 48.88C746.112 48.88 746.326 49.0667 746.486 49.44C746.699 49.8133 746.806 50.24 746.806 50.72C746.859 52.16 746.299 53.6267 745.126 55.12C744.006 56.6133 742.486 57.84 740.566 58.8C738.646 59.76 736.539 60.24 734.246 60.24C731.472 60.24 729.099 59.7333 727.126 58.72C725.152 57.7067 723.792 56.2133 723.046 54.24C721.446 56.16 719.552 57.6533 717.366 58.72C715.179 59.7333 712.832 60.24 710.326 60.24C707.499 60.24 705.126 59.7067 703.206 58.64C701.286 57.52 699.846 56.1067 698.886 54.4C697.979 52.64 697.526 50.8 697.526 48.88C697.526 48.0267 697.606 47.2 697.766 46.4C698.619 42.72 700.459 39.9467 703.286 38.08C706.166 36.2133 709.579 35.28 713.526 35.28C717.952 35.28 722.299 35.9733 726.566 37.36L728.566 32.08C729.259 29.84 729.606 28.1067 729.606 26.88C729.552 25.6 729.126 24.64 728.326 24C727.526 23.36 726.299 23.04 724.646 23.04C724.966 23.8933 725.126 24.7733 725.126 25.68C725.126 27.6533 724.379 29.36 722.886 30.8C721.392 32.24 719.259 32.96 716.486 32.96C713.872 32.96 711.819 32.4 710.326 31.28C708.886 30.1067 708.166 28.6667 708.166 26.96C708.166 24.2933 709.659 22.08 712.646 20.32C715.632 18.56 720.192 17.68 726.326 17.68ZM721.846 41.92C720.352 41.92 719.126 42.5067 718.166 43.68C717.259 44.8 716.806 46.0267 716.806 47.36C716.806 48.2133 716.992 48.9067 717.366 49.44C717.792 49.9733 718.379 50.24 719.126 50.24C719.819 50.24 720.566 49.9733 721.366 49.44C722.219 48.8533 722.832 48 723.206 46.88L724.886 42.16C723.979 42 722.966 41.92 721.846 41.92ZM790.947 17.68C793.294 17.68 795.16 18.64 796.547 20.56C797.987 22.4267 798.707 24.9867 798.707 28.24C798.707 31.0667 798.2 34.1067 797.187 37.36C795.214 43.92 792.04 50.1067 787.667 55.92C783.347 61.7333 778.36 66.4 772.707 69.92C767.107 73.44 761.507 75.2 755.907 75.2C753.134 75.2 750.734 74.72 748.707 73.76C746.734 72.8 745.24 71.52 744.227 69.92C743.16 68.32 742.627 66.6133 742.627 64.8C742.627 64 742.76 63.12 743.027 62.16C743.507 60.6667 744.307 59.52 745.427 58.72C746.547 57.92 747.88 57.52 749.427 57.52C751.88 57.52 753.88 58.3467 755.427 60C757.027 61.7067 758.04 64.0267 758.467 66.96C761.88 66.8 765.027 65.3333 767.907 62.56C765.187 62.08 763.16 61.1733 761.827 59.84C760.547 58.4533 759.667 56.32 759.187 53.44L755.987 33.84C755.827 32.8267 755.587 32.1333 755.267 31.76C755 31.3333 754.627 31.12 754.147 31.12C753.774 31.12 753.32 31.3067 752.787 31.68C752.307 32.0533 751.96 32.24 751.747 32.24C751.32 32.24 751.107 31.7867 751.107 30.88C751.107 30.1333 751.24 29.3333 751.507 28.48C752.467 25.44 754.254 22.88 756.867 20.8C759.48 18.6667 762.52 17.6 765.987 17.6C769.4 17.6 771.907 18.6133 773.507 20.64C775.16 22.6667 776.227 25.7867 776.707 30L779.107 47.6C779.267 48.9333 779.747 49.6 780.547 49.6C781.507 49.6 782.627 48.7467 783.907 47.04C785.187 45.28 786.44 42.8 787.667 39.6C786.067 38.16 784.84 36.5067 783.987 34.64C783.134 32.7733 782.707 30.7733 782.707 28.64C782.707 26.9867 782.92 25.4933 783.347 24.16C783.987 22.0267 784.974 20.4267 786.307 19.36C787.694 18.24 789.24 17.68 790.947 17.68ZM844.092 6.24C847.079 6.24 849.825 6.61333 852.332 7.36C854.892 8.05333 857.479 9.17333 860.092 10.72L861.932 9.2C863.212 8.18666 864.252 7.49333 865.052 7.12C865.905 6.74666 866.865 6.56 867.932 6.56C869.212 6.56 870.225 6.85333 870.972 7.44C871.719 7.97333 872.092 8.77333 872.092 9.84C872.092 10.2667 872.012 10.72 871.852 11.2L868.492 22.24C868.119 23.52 867.639 24.4267 867.052 24.96C866.519 25.4933 865.692 25.76 864.572 25.76C863.399 25.76 862.359 25.4133 861.452 24.72C860.599 23.9733 859.239 22.48 857.372 20.24C855.505 18.1067 853.799 16.6133 852.252 15.76C850.759 14.8533 849.212 14.4 847.612 14.4C846.439 14.4 845.452 14.8 844.652 15.6C843.852 16.3467 843.452 17.28 843.452 18.4C843.452 19.68 844.092 20.88 845.372 22C846.652 23.0667 848.652 24.4267 851.372 26.08C854.145 27.7333 856.439 29.2267 858.252 30.56C860.065 31.8933 861.612 33.5467 862.892 35.52C864.172 37.4933 864.812 39.76 864.812 42.32C864.812 43.9733 864.545 45.6267 864.012 47.28C862.732 51.5467 860.252 54.8 856.572 57.04C852.892 59.2267 848.599 60.32 843.692 60.32C840.012 60.32 836.919 59.8933 834.412 59.04C831.905 58.1867 829.345 56.7467 826.732 54.72L823.852 57.12C822.519 58.24 821.425 59.0133 820.572 59.44C819.719 59.8133 818.759 60 817.692 60C816.465 60 815.479 59.7067 814.732 59.12C814.039 58.5333 813.692 57.7333 813.692 56.72C813.692 56.1867 813.799 55.6267 814.012 55.04L817.932 43.12C818.359 41.7333 818.945 40.7467 819.692 40.16C820.439 39.5733 821.399 39.28 822.572 39.28C823.799 39.28 824.892 39.7067 825.852 40.56C826.865 41.4133 828.172 42.96 829.772 45.2C831.479 47.6533 833.052 49.36 834.492 50.32C835.985 51.28 837.745 51.76 839.772 51.76C841.212 51.76 842.305 51.5467 843.052 51.12C843.852 50.64 844.412 49.8933 844.732 48.88C844.839 48.6133 844.892 48.2133 844.892 47.68C844.892 46.4 844.279 45.2267 843.052 44.16C841.825 43.0933 839.932 41.8133 837.372 40.32C834.652 38.6667 832.439 37.2 830.732 35.92C829.025 34.5867 827.532 32.9333 826.252 30.96C825.025 28.9867 824.412 26.6667 824.412 24C824.412 22.1333 824.705 20.2933 825.292 18.48C826.412 14.8 828.705 11.84 832.172 9.6C835.639 7.36 839.612 6.24 844.092 6.24ZM905.088 18.72C906.101 18.72 906.875 18.9333 907.408 19.36C907.995 19.7867 908.288 20.3733 908.288 21.12C908.288 21.3333 908.235 21.7067 908.128 22.24C907.435 24.5867 905.835 25.76 903.328 25.76H898.688L892.688 45.52C892.421 46.32 892.288 47.1467 892.288 48C892.288 48.96 892.555 49.6267 893.088 50C893.621 50.3733 894.368 50.56 895.328 50.56C896.181 50.56 897.248 50.4533 898.528 50.24C899.168 50.08 899.728 50 900.208 50C900.581 50 900.848 50.1333 901.008 50.4C901.221 50.6133 901.328 50.9067 901.328 51.28C901.381 52.3467 900.581 53.6533 898.928 55.2C897.328 56.6933 895.141 58 892.368 59.12C889.595 60.1867 886.528 60.72 883.168 60.72C879.541 60.72 876.635 59.8933 874.448 58.24C872.261 56.5867 871.168 54.32 871.168 51.44C871.168 50.1067 871.381 48.8267 871.808 47.6L876.928 31.76C877.195 30.8533 877.328 30.1333 877.328 29.6C877.328 28.5333 877.061 27.6267 876.528 26.88C876.048 26.1333 875.355 25.36 874.448 24.56C873.648 23.8133 873.088 23.2 872.768 22.72C872.448 22.1867 872.368 21.5733 872.528 20.88C872.741 20.1867 873.195 19.6533 873.888 19.28C874.581 18.9067 875.675 18.72 877.168 18.72H881.648L886.688 13.68C888.448 11.92 890.048 10.6933 891.488 10C892.981 9.30667 894.901 8.96 897.248 8.96C900.608 8.96 902.288 10.24 902.288 12.8C902.288 13.6 902.181 14.3467 901.968 15.04L900.848 18.72H905.088ZM934.663 17.68C941.916 17.68 947.25 19.1467 950.663 22.08C954.13 25.0133 955.863 28.8533 955.863 33.6C955.863 35.2 955.65 36.9867 955.223 38.96C954.21 43.3333 952.316 47.1733 949.543 50.48C946.77 53.7333 943.356 56.2667 939.303 58.08C935.303 59.84 930.956 60.72 926.263 60.72C918.85 60.72 913.356 59.2533 909.783 56.32C906.263 53.3333 904.503 49.3867 904.503 44.48C904.503 42.8267 904.716 40.9867 905.143 38.96C906.156 34.8 908.076 31.12 910.903 27.92C913.783 24.6667 917.276 22.16 921.383 20.4C925.543 18.5867 929.97 17.68 934.663 17.68ZM934.423 24.8C933.303 24.8 932.103 25.8133 930.823 27.84C929.596 29.8133 928.13 33.5733 926.423 39.12C924.716 44.6667 923.863 48.56 923.863 50.8C923.863 51.9733 924.05 52.7733 924.423 53.2C924.796 53.5733 925.303 53.76 925.943 53.76C927.063 53.8667 928.21 52.9067 929.383 50.88C930.61 48.8533 932.13 44.9067 933.943 39.04C935.596 33.8667 936.423 30.1067 936.423 27.76C936.423 26.64 936.236 25.8667 935.863 25.44C935.543 25.0133 935.063 24.8 934.423 24.8ZM995.483 17.68C998.47 17.68 1000.84 18.5867 1002.6 20.4C1004.42 22.2133 1005.32 24.4533 1005.32 27.12C1005.32 28.1333 1005.22 29.0667 1005 29.92C1004.47 32.1067 1003.46 33.7867 1001.96 34.96C1000.47 36.1333 998.683 36.72 996.603 36.72C994.576 36.72 993.03 36.24 991.963 35.28C990.95 34.32 990.043 33.04 989.243 31.44C988.816 30.5333 988.416 29.8667 988.043 29.44C987.67 29.0133 987.243 28.8 986.763 28.8C986.23 28.8 985.75 29.0133 985.323 29.44C984.95 29.8667 984.603 30.6133 984.283 31.68L978.123 51.68C978.016 51.9467 977.963 52.3467 977.963 52.88C977.963 53.5733 978.15 54.16 978.523 54.64C978.95 55.0667 979.51 55.4933 980.203 55.92C980.843 56.3467 981.27 56.6933 981.483 56.96C981.696 57.2267 981.776 57.5733 981.723 58C981.616 58.6933 981.216 59.2 980.523 59.52C979.883 59.84 978.763 60 977.163 60H956.683C955.296 60 954.31 59.7867 953.723 59.36C953.083 58.88 952.843 58.2667 953.003 57.52C953.216 56.88 953.776 56.32 954.683 55.84C955.483 55.4133 956.15 54.9067 956.683 54.32C957.216 53.7333 957.67 52.8 958.043 51.52L965.163 28.4C965.27 28.1333 965.323 27.76 965.323 27.28C965.323 26.6933 965.19 26.24 964.923 25.92C964.71 25.6 964.336 25.2 963.803 24.72C963.27 24.2933 962.896 23.92 962.683 23.6C962.47 23.28 962.443 22.8533 962.603 22.32C962.923 21.0933 964.603 20.0267 967.643 19.12C970.683 18.16 973.856 17.68 977.163 17.68C979.35 17.68 981.163 18.1867 982.603 19.2C984.043 20.16 984.976 21.5467 985.403 23.36C987.963 19.5733 991.323 17.68 995.483 17.68ZM1029.65 17.28C1036.42 17.28 1041.33 18.3733 1044.37 20.56C1047.41 22.6933 1048.93 25.44 1048.93 28.8C1048.93 29.8133 1048.82 30.7467 1048.61 31.6C1047.81 35.12 1045.57 37.6533 1041.89 39.2C1038.26 40.6933 1033.97 41.44 1029.01 41.44C1026.5 41.44 1024.16 41.28 1021.97 40.96C1021.92 43.7333 1022.66 45.68 1024.21 46.8C1025.76 47.92 1027.92 48.48 1030.69 48.48C1031.97 48.48 1033.2 48.3467 1034.37 48.08C1035.54 47.76 1037.04 47.3067 1038.85 46.72C1040.34 46.1867 1041.36 45.92 1041.89 45.92C1042.48 45.92 1042.77 46.2667 1042.77 46.96C1042.82 48.8267 1042.13 50.8 1040.69 52.88C1039.25 54.9067 1037.12 56.64 1034.29 58.08C1031.46 59.52 1028.05 60.24 1024.05 60.24C1018.13 60.24 1013.28 58.7467 1009.49 55.76C1005.7 52.7733 1003.81 48.4267 1003.81 42.72C1003.81 41.12 1004.02 39.2533 1004.45 37.12C1005.78 30.56 1008.69 25.6267 1013.17 22.32C1017.7 18.96 1023.2 17.28 1029.65 17.28ZM1022.53 36.16C1022.74 36.2133 1023.04 36.24 1023.41 36.24C1025.65 36.24 1027.36 35.2 1028.53 33.12C1029.7 31.04 1030.26 28.72 1030.21 26.16C1030.16 24.6667 1029.73 23.92 1028.93 23.92C1028.34 23.92 1027.65 24.4 1026.85 25.36C1026.05 26.2667 1025.25 27.6533 1024.45 29.52C1023.7 31.3867 1023.06 33.6 1022.53 36.16Z" fill="#9A3324"/>
</svg>
